G04 (created by PCBNEW (2013-mar-13)-testing) date vie 30 may 2014 10:06:53 ART*
%MOIN*%
G04 Gerber Fmt 3.4, Leading zero omitted, Abs format*
%FSLAX34Y34*%
G01*
G70*
G90*
G04 APERTURE LIST*
%ADD10C,0.005906*%
%ADD11C,0.015000*%
%ADD12C,0.005000*%
%ADD13C,0.012000*%
%ADD14C,0.010000*%
%ADD15C,0.006000*%
%ADD16C,0.008000*%
%ADD17C,0.010800*%
%ADD18C,0.007500*%
%ADD19C,0.003500*%
G04 APERTURE END LIST*
G54D10*
G54D11*
X17003Y-33696D02*
X17003Y-38696D01*
X17003Y-38696D02*
X15003Y-38696D01*
X15003Y-38696D02*
X15003Y-33696D01*
X17003Y-21696D02*
X15003Y-21696D01*
X15003Y-21696D02*
X15003Y-33696D01*
X17003Y-33696D02*
X17003Y-21696D01*
X48346Y-40866D02*
X48346Y-39527D01*
X48346Y-39527D02*
X48346Y-36456D01*
X48346Y-36456D02*
X48346Y-32519D01*
X48346Y-32519D02*
X48346Y-19488D01*
X25314Y-40846D02*
X25314Y-19486D01*
X25322Y-40907D02*
X48346Y-40907D01*
X25322Y-19486D02*
X48346Y-19486D01*
G54D12*
X47064Y-51988D02*
G75*
G03X47064Y-51988I-1001J0D01*
G74*
G01*
X44702Y-51161D02*
G75*
G03X44702Y-51161I-1001J0D01*
G74*
G01*
X49229Y-50275D02*
G75*
G03X49229Y-50275I-1001J0D01*
G74*
G01*
X46867Y-49704D02*
G75*
G03X46867Y-49704I-1001J0D01*
G74*
G01*
G54D13*
X101775Y-45169D02*
X103755Y-45169D01*
X103755Y-45169D02*
X103755Y-46169D01*
X103755Y-46169D02*
X101755Y-46169D01*
X101755Y-46169D02*
X101755Y-45169D01*
X101755Y-45419D02*
X102005Y-45169D01*
X104925Y-45169D02*
X106905Y-45169D01*
X106905Y-45169D02*
X106905Y-46169D01*
X106905Y-46169D02*
X104905Y-46169D01*
X104905Y-46169D02*
X104905Y-45169D01*
X104905Y-45419D02*
X105155Y-45169D01*
X98626Y-45169D02*
X100606Y-45169D01*
X100606Y-45169D02*
X100606Y-46169D01*
X100606Y-46169D02*
X98606Y-46169D01*
X98606Y-46169D02*
X98606Y-45169D01*
X98606Y-45419D02*
X98856Y-45169D01*
X71460Y-47531D02*
X73440Y-47531D01*
X73440Y-47531D02*
X73440Y-48531D01*
X73440Y-48531D02*
X71440Y-48531D01*
X71440Y-48531D02*
X71440Y-47531D01*
X71440Y-47781D02*
X71690Y-47531D01*
X74216Y-47531D02*
X76196Y-47531D01*
X76196Y-47531D02*
X76196Y-48531D01*
X76196Y-48531D02*
X74196Y-48531D01*
X74196Y-48531D02*
X74196Y-47531D01*
X74196Y-47781D02*
X74446Y-47531D01*
X77366Y-47531D02*
X79346Y-47531D01*
X79346Y-47531D02*
X79346Y-48531D01*
X79346Y-48531D02*
X77346Y-48531D01*
X77346Y-48531D02*
X77346Y-47531D01*
X77346Y-47781D02*
X77596Y-47531D01*
X80122Y-47531D02*
X82102Y-47531D01*
X82102Y-47531D02*
X82102Y-48531D01*
X82102Y-48531D02*
X80102Y-48531D01*
X80102Y-48531D02*
X80102Y-47531D01*
X80102Y-47781D02*
X80352Y-47531D01*
X82878Y-47531D02*
X84858Y-47531D01*
X84858Y-47531D02*
X84858Y-48531D01*
X84858Y-48531D02*
X82858Y-48531D01*
X82858Y-48531D02*
X82858Y-47531D01*
X82858Y-47781D02*
X83108Y-47531D01*
X68705Y-47531D02*
X70685Y-47531D01*
X70685Y-47531D02*
X70685Y-48531D01*
X70685Y-48531D02*
X68685Y-48531D01*
X68685Y-48531D02*
X68685Y-47531D01*
X68685Y-47781D02*
X68935Y-47531D01*
G54D14*
X34582Y-46271D02*
X32582Y-46271D01*
X34582Y-48021D02*
X32582Y-48021D01*
X32582Y-45521D02*
X34582Y-45521D01*
X32582Y-45521D02*
X32582Y-48021D01*
X34582Y-45521D02*
X34582Y-48021D01*
X36905Y-46271D02*
X34905Y-46271D01*
X36905Y-48021D02*
X34905Y-48021D01*
X34905Y-45521D02*
X36905Y-45521D01*
X34905Y-45521D02*
X34905Y-48021D01*
X36905Y-45521D02*
X36905Y-48021D01*
X48874Y-45996D02*
X46874Y-45996D01*
X48874Y-47746D02*
X46874Y-47746D01*
X46874Y-45246D02*
X48874Y-45246D01*
X46874Y-45246D02*
X46874Y-47746D01*
X48874Y-45246D02*
X48874Y-47746D01*
X45842Y-45051D02*
X43842Y-45051D01*
X45842Y-46801D02*
X43842Y-46801D01*
X43842Y-44301D02*
X45842Y-44301D01*
X43842Y-44301D02*
X43842Y-46801D01*
X45842Y-44301D02*
X45842Y-46801D01*
X42870Y-45720D02*
X40870Y-45720D01*
X42870Y-47470D02*
X40870Y-47470D01*
X40870Y-44970D02*
X42870Y-44970D01*
X40870Y-44970D02*
X40870Y-47470D01*
X42870Y-44970D02*
X42870Y-47470D01*
X39858Y-45917D02*
X37858Y-45917D01*
X39858Y-47667D02*
X37858Y-47667D01*
X37858Y-45167D02*
X39858Y-45167D01*
X37858Y-45167D02*
X37858Y-47667D01*
X39858Y-45167D02*
X39858Y-47667D01*
X31098Y-45858D02*
X29098Y-45858D01*
X31098Y-47608D02*
X29098Y-47608D01*
X29098Y-45108D02*
X31098Y-45108D01*
X29098Y-45108D02*
X29098Y-47608D01*
X31098Y-45108D02*
X31098Y-47608D01*
X32889Y-49893D02*
X30889Y-49893D01*
X32889Y-51643D02*
X30889Y-51643D01*
X30889Y-49143D02*
X32889Y-49143D01*
X30889Y-49143D02*
X30889Y-51643D01*
X32889Y-49143D02*
X32889Y-51643D01*
X42157Y-51877D02*
X38157Y-51877D01*
X42157Y-50877D02*
X38157Y-50877D01*
X38157Y-50877D02*
X38157Y-51877D01*
X42157Y-51877D02*
X42157Y-50877D01*
X42157Y-50500D02*
X38157Y-50500D01*
X42157Y-49500D02*
X38157Y-49500D01*
X38157Y-49500D02*
X38157Y-50500D01*
X42157Y-50500D02*
X42157Y-49500D01*
G54D13*
X61381Y-36771D02*
X61081Y-36771D01*
X61081Y-36771D02*
X61081Y-36371D01*
X61081Y-36371D02*
X58681Y-36371D01*
X58681Y-36371D02*
X58681Y-36771D01*
X58681Y-36771D02*
X58381Y-36771D01*
X58681Y-36771D02*
X58681Y-37171D01*
X58681Y-37171D02*
X61081Y-37171D01*
X61081Y-37171D02*
X61081Y-36771D01*
X60881Y-36371D02*
X60881Y-37171D01*
X60781Y-37171D02*
X60781Y-36371D01*
X61480Y-37874D02*
X61180Y-37874D01*
X61180Y-37874D02*
X61180Y-37474D01*
X61180Y-37474D02*
X58780Y-37474D01*
X58780Y-37474D02*
X58780Y-37874D01*
X58780Y-37874D02*
X58480Y-37874D01*
X58780Y-37874D02*
X58780Y-38274D01*
X58780Y-38274D02*
X61180Y-38274D01*
X61180Y-38274D02*
X61180Y-37874D01*
X60980Y-37474D02*
X60980Y-38274D01*
X60880Y-38274D02*
X60880Y-37474D01*
X61539Y-38956D02*
X61239Y-38956D01*
X61239Y-38956D02*
X61239Y-38556D01*
X61239Y-38556D02*
X58839Y-38556D01*
X58839Y-38556D02*
X58839Y-38956D01*
X58839Y-38956D02*
X58539Y-38956D01*
X58839Y-38956D02*
X58839Y-39356D01*
X58839Y-39356D02*
X61239Y-39356D01*
X61239Y-39356D02*
X61239Y-38956D01*
X61039Y-38556D02*
X61039Y-39356D01*
X60939Y-39356D02*
X60939Y-38556D01*
X61598Y-40059D02*
X61298Y-40059D01*
X61298Y-40059D02*
X61298Y-39659D01*
X61298Y-39659D02*
X58898Y-39659D01*
X58898Y-39659D02*
X58898Y-40059D01*
X58898Y-40059D02*
X58598Y-40059D01*
X58898Y-40059D02*
X58898Y-40459D01*
X58898Y-40459D02*
X61298Y-40459D01*
X61298Y-40459D02*
X61298Y-40059D01*
X61098Y-39659D02*
X61098Y-40459D01*
X60998Y-40459D02*
X60998Y-39659D01*
X61696Y-40964D02*
X61396Y-40964D01*
X61396Y-40964D02*
X61396Y-40564D01*
X61396Y-40564D02*
X58996Y-40564D01*
X58996Y-40564D02*
X58996Y-40964D01*
X58996Y-40964D02*
X58696Y-40964D01*
X58996Y-40964D02*
X58996Y-41364D01*
X58996Y-41364D02*
X61396Y-41364D01*
X61396Y-41364D02*
X61396Y-40964D01*
X61196Y-40564D02*
X61196Y-41364D01*
X61096Y-41364D02*
X61096Y-40564D01*
X61933Y-42066D02*
X61633Y-42066D01*
X61633Y-42066D02*
X61633Y-41666D01*
X61633Y-41666D02*
X59233Y-41666D01*
X59233Y-41666D02*
X59233Y-42066D01*
X59233Y-42066D02*
X58933Y-42066D01*
X59233Y-42066D02*
X59233Y-42466D01*
X59233Y-42466D02*
X61633Y-42466D01*
X61633Y-42466D02*
X61633Y-42066D01*
X61433Y-41666D02*
X61433Y-42466D01*
X61333Y-42466D02*
X61333Y-41666D01*
X62011Y-43169D02*
X61711Y-43169D01*
X61711Y-43169D02*
X61711Y-42769D01*
X61711Y-42769D02*
X59311Y-42769D01*
X59311Y-42769D02*
X59311Y-43169D01*
X59311Y-43169D02*
X59011Y-43169D01*
X59311Y-43169D02*
X59311Y-43569D01*
X59311Y-43569D02*
X61711Y-43569D01*
X61711Y-43569D02*
X61711Y-43169D01*
X61511Y-42769D02*
X61511Y-43569D01*
X61411Y-43569D02*
X61411Y-42769D01*
X62090Y-44232D02*
X61790Y-44232D01*
X61790Y-44232D02*
X61790Y-43832D01*
X61790Y-43832D02*
X59390Y-43832D01*
X59390Y-43832D02*
X59390Y-44232D01*
X59390Y-44232D02*
X59090Y-44232D01*
X59390Y-44232D02*
X59390Y-44632D01*
X59390Y-44632D02*
X61790Y-44632D01*
X61790Y-44632D02*
X61790Y-44232D01*
X61590Y-43832D02*
X61590Y-44632D01*
X61490Y-44632D02*
X61490Y-43832D01*
X62129Y-45354D02*
X61829Y-45354D01*
X61829Y-45354D02*
X61829Y-44954D01*
X61829Y-44954D02*
X59429Y-44954D01*
X59429Y-44954D02*
X59429Y-45354D01*
X59429Y-45354D02*
X59129Y-45354D01*
X59429Y-45354D02*
X59429Y-45754D01*
X59429Y-45754D02*
X61829Y-45754D01*
X61829Y-45754D02*
X61829Y-45354D01*
X61629Y-44954D02*
X61629Y-45754D01*
X61529Y-45754D02*
X61529Y-44954D01*
X62070Y-34724D02*
X61770Y-34724D01*
X61770Y-34724D02*
X61770Y-34324D01*
X61770Y-34324D02*
X59370Y-34324D01*
X59370Y-34324D02*
X59370Y-34724D01*
X59370Y-34724D02*
X59070Y-34724D01*
X59370Y-34724D02*
X59370Y-35124D01*
X59370Y-35124D02*
X61770Y-35124D01*
X61770Y-35124D02*
X61770Y-34724D01*
X61570Y-34324D02*
X61570Y-35124D01*
X61470Y-35124D02*
X61470Y-34324D01*
X59366Y-32767D02*
X62366Y-32767D01*
X62366Y-32767D02*
X62366Y-33767D01*
X62366Y-33767D02*
X59366Y-33767D01*
X59366Y-33767D02*
X59366Y-32767D01*
X62116Y-32767D02*
X62116Y-33767D01*
X61866Y-33767D02*
X61866Y-32767D01*
X59366Y-33267D02*
X58866Y-33267D01*
X62366Y-33267D02*
X62866Y-33267D01*
G54D15*
X89870Y-48137D02*
X88870Y-48137D01*
X88870Y-47137D02*
X89870Y-47137D01*
X88870Y-48137D02*
X88870Y-47137D01*
X89870Y-47137D02*
X89870Y-48137D01*
X87114Y-48137D02*
X86114Y-48137D01*
X86114Y-47137D02*
X87114Y-47137D01*
X86114Y-48137D02*
X86114Y-47137D01*
X87114Y-47137D02*
X87114Y-48137D01*
G54D13*
X17216Y-46275D02*
X18716Y-44775D01*
X18716Y-44775D02*
X18716Y-44275D01*
X18716Y-44275D02*
X18216Y-43775D01*
X18216Y-43775D02*
X17216Y-43775D01*
X17216Y-43775D02*
X16216Y-44775D01*
X16216Y-44775D02*
X16216Y-45775D01*
X16216Y-45775D02*
X16716Y-46275D01*
X16716Y-46275D02*
X17216Y-46275D01*
X23122Y-45881D02*
X24622Y-44381D01*
X24622Y-44381D02*
X24622Y-43881D01*
X24622Y-43881D02*
X24122Y-43381D01*
X24122Y-43381D02*
X23122Y-43381D01*
X23122Y-43381D02*
X22122Y-44381D01*
X22122Y-44381D02*
X22122Y-45381D01*
X22122Y-45381D02*
X22622Y-45881D01*
X22622Y-45881D02*
X23122Y-45881D01*
X20366Y-45488D02*
X21866Y-43988D01*
X21866Y-43988D02*
X21866Y-43488D01*
X21866Y-43488D02*
X21366Y-42988D01*
X21366Y-42988D02*
X20366Y-42988D01*
X20366Y-42988D02*
X19366Y-43988D01*
X19366Y-43988D02*
X19366Y-44988D01*
X19366Y-44988D02*
X19866Y-45488D01*
X19866Y-45488D02*
X20366Y-45488D01*
G54D16*
X66866Y-35413D02*
X67066Y-35413D01*
X69866Y-35413D02*
X69666Y-35413D01*
X69666Y-35413D02*
X69666Y-35013D01*
X69666Y-35013D02*
X67066Y-35013D01*
X67066Y-35013D02*
X67066Y-35813D01*
X67066Y-35813D02*
X69666Y-35813D01*
X69666Y-35813D02*
X69666Y-35413D01*
X67066Y-35213D02*
X67266Y-35013D01*
X81964Y-43307D02*
X82164Y-43307D01*
X84964Y-43307D02*
X84764Y-43307D01*
X84764Y-43307D02*
X84764Y-42907D01*
X84764Y-42907D02*
X82164Y-42907D01*
X82164Y-42907D02*
X82164Y-43707D01*
X82164Y-43707D02*
X84764Y-43707D01*
X84764Y-43707D02*
X84764Y-43307D01*
X82164Y-43107D02*
X82364Y-42907D01*
X85901Y-43307D02*
X86101Y-43307D01*
X88901Y-43307D02*
X88701Y-43307D01*
X88701Y-43307D02*
X88701Y-42907D01*
X88701Y-42907D02*
X86101Y-42907D01*
X86101Y-42907D02*
X86101Y-43707D01*
X86101Y-43707D02*
X88701Y-43707D01*
X88701Y-43707D02*
X88701Y-43307D01*
X86101Y-43107D02*
X86301Y-42907D01*
X90232Y-43307D02*
X90432Y-43307D01*
X93232Y-43307D02*
X93032Y-43307D01*
X93032Y-43307D02*
X93032Y-42907D01*
X93032Y-42907D02*
X90432Y-42907D01*
X90432Y-42907D02*
X90432Y-43707D01*
X90432Y-43707D02*
X93032Y-43707D01*
X93032Y-43707D02*
X93032Y-43307D01*
X90432Y-43107D02*
X90632Y-42907D01*
X94562Y-43307D02*
X94762Y-43307D01*
X97562Y-43307D02*
X97362Y-43307D01*
X97362Y-43307D02*
X97362Y-42907D01*
X97362Y-42907D02*
X94762Y-42907D01*
X94762Y-42907D02*
X94762Y-43707D01*
X94762Y-43707D02*
X97362Y-43707D01*
X97362Y-43707D02*
X97362Y-43307D01*
X94762Y-43107D02*
X94962Y-42907D01*
X98893Y-43307D02*
X99093Y-43307D01*
X101893Y-43307D02*
X101693Y-43307D01*
X101693Y-43307D02*
X101693Y-42907D01*
X101693Y-42907D02*
X99093Y-42907D01*
X99093Y-42907D02*
X99093Y-43707D01*
X99093Y-43707D02*
X101693Y-43707D01*
X101693Y-43707D02*
X101693Y-43307D01*
X99093Y-43107D02*
X99293Y-42907D01*
X103224Y-43307D02*
X103424Y-43307D01*
X106224Y-43307D02*
X106024Y-43307D01*
X106024Y-43307D02*
X106024Y-42907D01*
X106024Y-42907D02*
X103424Y-42907D01*
X103424Y-42907D02*
X103424Y-43707D01*
X103424Y-43707D02*
X106024Y-43707D01*
X106024Y-43707D02*
X106024Y-43307D01*
X103424Y-43107D02*
X103624Y-42907D01*
X68972Y-44881D02*
X69172Y-44881D01*
X71972Y-44881D02*
X71772Y-44881D01*
X71772Y-44881D02*
X71772Y-44481D01*
X71772Y-44481D02*
X69172Y-44481D01*
X69172Y-44481D02*
X69172Y-45281D01*
X69172Y-45281D02*
X71772Y-45281D01*
X71772Y-45281D02*
X71772Y-44881D01*
X69172Y-44681D02*
X69372Y-44481D01*
X73303Y-44881D02*
X73503Y-44881D01*
X76303Y-44881D02*
X76103Y-44881D01*
X76103Y-44881D02*
X76103Y-44481D01*
X76103Y-44481D02*
X73503Y-44481D01*
X73503Y-44481D02*
X73503Y-45281D01*
X73503Y-45281D02*
X76103Y-45281D01*
X76103Y-45281D02*
X76103Y-44881D01*
X73503Y-44681D02*
X73703Y-44481D01*
X77633Y-44881D02*
X77833Y-44881D01*
X80633Y-44881D02*
X80433Y-44881D01*
X80433Y-44881D02*
X80433Y-44481D01*
X80433Y-44481D02*
X77833Y-44481D01*
X77833Y-44481D02*
X77833Y-45281D01*
X77833Y-45281D02*
X80433Y-45281D01*
X80433Y-45281D02*
X80433Y-44881D01*
X77833Y-44681D02*
X78033Y-44481D01*
X81570Y-44881D02*
X81770Y-44881D01*
X84570Y-44881D02*
X84370Y-44881D01*
X84370Y-44881D02*
X84370Y-44481D01*
X84370Y-44481D02*
X81770Y-44481D01*
X81770Y-44481D02*
X81770Y-45281D01*
X81770Y-45281D02*
X84370Y-45281D01*
X84370Y-45281D02*
X84370Y-44881D01*
X81770Y-44681D02*
X81970Y-44481D01*
X85901Y-44881D02*
X86101Y-44881D01*
X88901Y-44881D02*
X88701Y-44881D01*
X88701Y-44881D02*
X88701Y-44481D01*
X88701Y-44481D02*
X86101Y-44481D01*
X86101Y-44481D02*
X86101Y-45281D01*
X86101Y-45281D02*
X88701Y-45281D01*
X88701Y-45281D02*
X88701Y-44881D01*
X86101Y-44681D02*
X86301Y-44481D01*
X90232Y-44881D02*
X90432Y-44881D01*
X93232Y-44881D02*
X93032Y-44881D01*
X93032Y-44881D02*
X93032Y-44481D01*
X93032Y-44481D02*
X90432Y-44481D01*
X90432Y-44481D02*
X90432Y-45281D01*
X90432Y-45281D02*
X93032Y-45281D01*
X93032Y-45281D02*
X93032Y-44881D01*
X90432Y-44681D02*
X90632Y-44481D01*
X72909Y-35255D02*
X73109Y-35255D01*
X75909Y-35255D02*
X75709Y-35255D01*
X75709Y-35255D02*
X75709Y-34855D01*
X75709Y-34855D02*
X73109Y-34855D01*
X73109Y-34855D02*
X73109Y-35655D01*
X73109Y-35655D02*
X75709Y-35655D01*
X75709Y-35655D02*
X75709Y-35255D01*
X73109Y-35055D02*
X73309Y-34855D01*
X94562Y-44881D02*
X94762Y-44881D01*
X97562Y-44881D02*
X97362Y-44881D01*
X97362Y-44881D02*
X97362Y-44481D01*
X97362Y-44481D02*
X94762Y-44481D01*
X94762Y-44481D02*
X94762Y-45281D01*
X94762Y-45281D02*
X97362Y-45281D01*
X97362Y-45281D02*
X97362Y-44881D01*
X94762Y-44681D02*
X94962Y-44481D01*
X50673Y-23267D02*
X58775Y-23267D01*
X59015Y-23507D02*
X59015Y-29247D01*
X58775Y-29487D02*
X50673Y-29487D01*
X50433Y-29247D02*
X50433Y-23507D01*
X50673Y-23267D02*
G75*
G03X50433Y-23507I0J-240D01*
G74*
G01*
X59015Y-23507D02*
G75*
G03X58775Y-23267I-240J0D01*
G74*
G01*
X58775Y-29487D02*
G75*
G03X59015Y-29247I0J240D01*
G74*
G01*
X50433Y-29247D02*
G75*
G03X50673Y-29487I240J0D01*
G74*
G01*
G54D10*
X53149Y-21456D02*
X54429Y-21456D01*
X54429Y-21456D02*
X54429Y-19488D01*
X54429Y-19488D02*
X51870Y-19488D01*
X51870Y-19488D02*
X51870Y-21456D01*
X51870Y-21456D02*
X53149Y-21456D01*
G54D14*
X17646Y-30682D02*
X17665Y-30701D01*
X17684Y-30758D01*
X17684Y-30796D01*
X17665Y-30853D01*
X17627Y-30892D01*
X17589Y-30911D01*
X17513Y-30930D01*
X17456Y-30930D01*
X17380Y-30911D01*
X17342Y-30892D01*
X17303Y-30853D01*
X17284Y-30796D01*
X17284Y-30758D01*
X17303Y-30701D01*
X17322Y-30682D01*
X17284Y-30434D02*
X17284Y-30358D01*
X17303Y-30320D01*
X17342Y-30282D01*
X17418Y-30263D01*
X17551Y-30263D01*
X17627Y-30282D01*
X17665Y-30320D01*
X17684Y-30358D01*
X17684Y-30434D01*
X17665Y-30473D01*
X17627Y-30511D01*
X17551Y-30530D01*
X17418Y-30530D01*
X17342Y-30511D01*
X17303Y-30473D01*
X17284Y-30434D01*
X17684Y-30092D02*
X17284Y-30092D01*
X17684Y-29863D01*
X17284Y-29863D01*
X17456Y-29615D02*
X17437Y-29653D01*
X17418Y-29673D01*
X17380Y-29692D01*
X17361Y-29692D01*
X17322Y-29673D01*
X17303Y-29653D01*
X17284Y-29615D01*
X17284Y-29539D01*
X17303Y-29501D01*
X17322Y-29482D01*
X17361Y-29463D01*
X17380Y-29463D01*
X17418Y-29482D01*
X17437Y-29501D01*
X17456Y-29539D01*
X17456Y-29615D01*
X17475Y-29653D01*
X17494Y-29673D01*
X17532Y-29692D01*
X17608Y-29692D01*
X17646Y-29673D01*
X17665Y-29653D01*
X17684Y-29615D01*
X17684Y-29539D01*
X17665Y-29501D01*
X17646Y-29482D01*
X17608Y-29463D01*
X17532Y-29463D01*
X17494Y-29482D01*
X17475Y-29501D01*
X17456Y-29539D01*
G54D17*
G54D16*
X14684Y-31234D02*
X14684Y-31425D01*
X14284Y-31425D01*
X14646Y-30873D02*
X14665Y-30892D01*
X14684Y-30949D01*
X14684Y-30987D01*
X14665Y-31044D01*
X14627Y-31082D01*
X14589Y-31101D01*
X14513Y-31120D01*
X14456Y-31120D01*
X14380Y-31101D01*
X14342Y-31082D01*
X14303Y-31044D01*
X14284Y-30987D01*
X14284Y-30949D01*
X14303Y-30892D01*
X14322Y-30873D01*
X14684Y-30701D02*
X14284Y-30701D01*
X14284Y-30606D01*
X14303Y-30549D01*
X14342Y-30511D01*
X14380Y-30492D01*
X14456Y-30473D01*
X14513Y-30473D01*
X14589Y-30492D01*
X14627Y-30511D01*
X14665Y-30549D01*
X14684Y-30606D01*
X14684Y-30701D01*
X14684Y-30092D02*
X14684Y-30320D01*
X14684Y-30206D02*
X14284Y-30206D01*
X14342Y-30244D01*
X14380Y-30282D01*
X14399Y-30320D01*
X14284Y-29749D02*
X14284Y-29825D01*
X14303Y-29863D01*
X14322Y-29882D01*
X14380Y-29920D01*
X14456Y-29939D01*
X14608Y-29939D01*
X14646Y-29920D01*
X14665Y-29901D01*
X14684Y-29863D01*
X14684Y-29787D01*
X14665Y-29749D01*
X14646Y-29730D01*
X14608Y-29711D01*
X14513Y-29711D01*
X14475Y-29730D01*
X14456Y-29749D01*
X14437Y-29787D01*
X14437Y-29863D01*
X14456Y-29901D01*
X14475Y-29920D01*
X14513Y-29939D01*
X14284Y-29577D02*
X14684Y-29311D01*
X14284Y-29311D02*
X14684Y-29577D01*
X14322Y-29177D02*
X14303Y-29158D01*
X14284Y-29120D01*
X14284Y-29025D01*
X14303Y-28987D01*
X14322Y-28968D01*
X14361Y-28949D01*
X14399Y-28949D01*
X14456Y-28968D01*
X14684Y-29196D01*
X14684Y-28949D01*
G54D12*
X46012Y-51596D02*
X45998Y-51610D01*
X45955Y-51624D01*
X45927Y-51624D01*
X45884Y-51610D01*
X45855Y-51582D01*
X45841Y-51553D01*
X45827Y-51496D01*
X45827Y-51453D01*
X45841Y-51396D01*
X45855Y-51367D01*
X45884Y-51339D01*
X45927Y-51324D01*
X45955Y-51324D01*
X45998Y-51339D01*
X46012Y-51353D01*
X46298Y-51624D02*
X46127Y-51624D01*
X46212Y-51624D02*
X46212Y-51324D01*
X46184Y-51367D01*
X46155Y-51396D01*
X46127Y-51410D01*
X45818Y-52623D02*
X45676Y-52623D01*
X45747Y-52623D02*
X45747Y-52323D01*
X45723Y-52366D01*
X45699Y-52395D01*
X45676Y-52409D01*
X46223Y-52423D02*
X46223Y-52623D01*
X46116Y-52423D02*
X46116Y-52581D01*
X46128Y-52609D01*
X46152Y-52623D01*
X46187Y-52623D01*
X46211Y-52609D01*
X46223Y-52595D01*
X46426Y-52466D02*
X46342Y-52466D01*
X46342Y-52623D02*
X46342Y-52323D01*
X46461Y-52323D01*
G54D18*
X45048Y-52009D02*
X45277Y-52009D01*
X45162Y-52123D02*
X45162Y-51895D01*
G54D16*
G54D12*
X43650Y-50769D02*
X43636Y-50783D01*
X43593Y-50798D01*
X43565Y-50798D01*
X43522Y-50783D01*
X43493Y-50755D01*
X43479Y-50726D01*
X43465Y-50669D01*
X43465Y-50626D01*
X43479Y-50569D01*
X43493Y-50540D01*
X43522Y-50512D01*
X43565Y-50498D01*
X43593Y-50498D01*
X43636Y-50512D01*
X43650Y-50526D01*
X43765Y-50526D02*
X43779Y-50512D01*
X43807Y-50498D01*
X43879Y-50498D01*
X43907Y-50512D01*
X43922Y-50526D01*
X43936Y-50555D01*
X43936Y-50583D01*
X43922Y-50626D01*
X43750Y-50798D01*
X43936Y-50798D01*
X43456Y-51797D02*
X43313Y-51797D01*
X43385Y-51797D02*
X43385Y-51497D01*
X43361Y-51539D01*
X43337Y-51568D01*
X43313Y-51582D01*
X43861Y-51597D02*
X43861Y-51797D01*
X43754Y-51597D02*
X43754Y-51754D01*
X43766Y-51782D01*
X43790Y-51797D01*
X43825Y-51797D01*
X43849Y-51782D01*
X43861Y-51768D01*
X44063Y-51639D02*
X43980Y-51639D01*
X43980Y-51797D02*
X43980Y-51497D01*
X44099Y-51497D01*
G54D18*
X42686Y-51182D02*
X42915Y-51182D01*
X42800Y-51297D02*
X42800Y-51068D01*
G54D16*
G54D12*
X48178Y-49883D02*
X48164Y-49898D01*
X48121Y-49912D01*
X48092Y-49912D01*
X48049Y-49898D01*
X48021Y-49869D01*
X48006Y-49840D01*
X47992Y-49783D01*
X47992Y-49740D01*
X48006Y-49683D01*
X48021Y-49655D01*
X48049Y-49626D01*
X48092Y-49612D01*
X48121Y-49612D01*
X48164Y-49626D01*
X48178Y-49640D01*
X48278Y-49612D02*
X48464Y-49612D01*
X48364Y-49726D01*
X48406Y-49726D01*
X48435Y-49740D01*
X48449Y-49755D01*
X48464Y-49783D01*
X48464Y-49855D01*
X48449Y-49883D01*
X48435Y-49898D01*
X48406Y-49912D01*
X48321Y-49912D01*
X48292Y-49898D01*
X48278Y-49883D01*
X47984Y-50911D02*
X47841Y-50911D01*
X47912Y-50911D02*
X47912Y-50611D01*
X47889Y-50654D01*
X47865Y-50682D01*
X47841Y-50697D01*
X48389Y-50711D02*
X48389Y-50911D01*
X48281Y-50711D02*
X48281Y-50868D01*
X48293Y-50897D01*
X48317Y-50911D01*
X48353Y-50911D01*
X48377Y-50897D01*
X48389Y-50882D01*
X48591Y-50754D02*
X48508Y-50754D01*
X48508Y-50911D02*
X48508Y-50611D01*
X48627Y-50611D01*
G54D18*
X47214Y-50297D02*
X47442Y-50297D01*
X47328Y-50411D02*
X47328Y-50182D01*
G54D16*
G54D12*
X45816Y-49312D02*
X45801Y-49327D01*
X45758Y-49341D01*
X45730Y-49341D01*
X45687Y-49327D01*
X45658Y-49298D01*
X45644Y-49270D01*
X45630Y-49212D01*
X45630Y-49170D01*
X45644Y-49112D01*
X45658Y-49084D01*
X45687Y-49055D01*
X45730Y-49041D01*
X45758Y-49041D01*
X45801Y-49055D01*
X45816Y-49070D01*
X46073Y-49141D02*
X46073Y-49341D01*
X46001Y-49027D02*
X45930Y-49241D01*
X46116Y-49241D01*
X45622Y-50340D02*
X45479Y-50340D01*
X45550Y-50340D02*
X45550Y-50040D01*
X45526Y-50083D01*
X45503Y-50111D01*
X45479Y-50126D01*
X46026Y-50140D02*
X46026Y-50340D01*
X45919Y-50140D02*
X45919Y-50297D01*
X45931Y-50326D01*
X45955Y-50340D01*
X45991Y-50340D01*
X46014Y-50326D01*
X46026Y-50311D01*
X46229Y-50183D02*
X46145Y-50183D01*
X46145Y-50340D02*
X46145Y-50040D01*
X46264Y-50040D01*
G54D18*
X44851Y-49726D02*
X45080Y-49726D01*
X44966Y-49840D02*
X44966Y-49611D01*
G54D16*
X102789Y-44912D02*
X102770Y-44931D01*
X102713Y-44950D01*
X102674Y-44950D01*
X102617Y-44931D01*
X102579Y-44893D01*
X102560Y-44855D01*
X102541Y-44778D01*
X102541Y-44721D01*
X102560Y-44645D01*
X102579Y-44607D01*
X102617Y-44569D01*
X102674Y-44550D01*
X102713Y-44550D01*
X102770Y-44569D01*
X102789Y-44588D01*
X103151Y-44550D02*
X102960Y-44550D01*
X102941Y-44740D01*
X102960Y-44721D01*
X102998Y-44702D01*
X103094Y-44702D01*
X103132Y-44721D01*
X103151Y-44740D01*
X103170Y-44778D01*
X103170Y-44874D01*
X103151Y-44912D01*
X103132Y-44931D01*
X103094Y-44950D01*
X102998Y-44950D01*
X102960Y-44931D01*
X102941Y-44912D01*
X105938Y-44912D02*
X105919Y-44931D01*
X105862Y-44950D01*
X105824Y-44950D01*
X105767Y-44931D01*
X105729Y-44893D01*
X105710Y-44855D01*
X105691Y-44778D01*
X105691Y-44721D01*
X105710Y-44645D01*
X105729Y-44607D01*
X105767Y-44569D01*
X105824Y-44550D01*
X105862Y-44550D01*
X105919Y-44569D01*
X105938Y-44588D01*
X106281Y-44550D02*
X106205Y-44550D01*
X106167Y-44569D01*
X106148Y-44588D01*
X106110Y-44645D01*
X106091Y-44721D01*
X106091Y-44874D01*
X106110Y-44912D01*
X106129Y-44931D01*
X106167Y-44950D01*
X106243Y-44950D01*
X106281Y-44931D01*
X106300Y-44912D01*
X106319Y-44874D01*
X106319Y-44778D01*
X106300Y-44740D01*
X106281Y-44721D01*
X106243Y-44702D01*
X106167Y-44702D01*
X106129Y-44721D01*
X106110Y-44740D01*
X106091Y-44778D01*
X99639Y-44912D02*
X99620Y-44931D01*
X99563Y-44950D01*
X99525Y-44950D01*
X99468Y-44931D01*
X99430Y-44893D01*
X99411Y-44855D01*
X99392Y-44778D01*
X99392Y-44721D01*
X99411Y-44645D01*
X99430Y-44607D01*
X99468Y-44569D01*
X99525Y-44550D01*
X99563Y-44550D01*
X99620Y-44569D01*
X99639Y-44588D01*
X99772Y-44550D02*
X100039Y-44550D01*
X99868Y-44950D01*
X72474Y-47274D02*
X72455Y-47293D01*
X72398Y-47312D01*
X72359Y-47312D01*
X72302Y-47293D01*
X72264Y-47255D01*
X72245Y-47217D01*
X72226Y-47141D01*
X72226Y-47083D01*
X72245Y-47007D01*
X72264Y-46969D01*
X72302Y-46931D01*
X72359Y-46912D01*
X72398Y-46912D01*
X72455Y-46931D01*
X72474Y-46950D01*
X72702Y-47083D02*
X72664Y-47064D01*
X72645Y-47045D01*
X72626Y-47007D01*
X72626Y-46988D01*
X72645Y-46950D01*
X72664Y-46931D01*
X72702Y-46912D01*
X72779Y-46912D01*
X72817Y-46931D01*
X72836Y-46950D01*
X72855Y-46988D01*
X72855Y-47007D01*
X72836Y-47045D01*
X72817Y-47064D01*
X72779Y-47083D01*
X72702Y-47083D01*
X72664Y-47102D01*
X72645Y-47121D01*
X72626Y-47160D01*
X72626Y-47236D01*
X72645Y-47274D01*
X72664Y-47293D01*
X72702Y-47312D01*
X72779Y-47312D01*
X72817Y-47293D01*
X72836Y-47274D01*
X72855Y-47236D01*
X72855Y-47160D01*
X72836Y-47121D01*
X72817Y-47102D01*
X72779Y-47083D01*
X75230Y-47274D02*
X75211Y-47293D01*
X75153Y-47312D01*
X75115Y-47312D01*
X75058Y-47293D01*
X75020Y-47255D01*
X75001Y-47217D01*
X74982Y-47141D01*
X74982Y-47083D01*
X75001Y-47007D01*
X75020Y-46969D01*
X75058Y-46931D01*
X75115Y-46912D01*
X75153Y-46912D01*
X75211Y-46931D01*
X75230Y-46950D01*
X75420Y-47312D02*
X75496Y-47312D01*
X75534Y-47293D01*
X75553Y-47274D01*
X75592Y-47217D01*
X75611Y-47141D01*
X75611Y-46988D01*
X75592Y-46950D01*
X75573Y-46931D01*
X75534Y-46912D01*
X75458Y-46912D01*
X75420Y-46931D01*
X75401Y-46950D01*
X75382Y-46988D01*
X75382Y-47083D01*
X75401Y-47121D01*
X75420Y-47141D01*
X75458Y-47160D01*
X75534Y-47160D01*
X75573Y-47141D01*
X75592Y-47121D01*
X75611Y-47083D01*
X78189Y-47274D02*
X78170Y-47293D01*
X78113Y-47312D01*
X78075Y-47312D01*
X78017Y-47293D01*
X77979Y-47255D01*
X77960Y-47217D01*
X77941Y-47141D01*
X77941Y-47083D01*
X77960Y-47007D01*
X77979Y-46969D01*
X78017Y-46931D01*
X78075Y-46912D01*
X78113Y-46912D01*
X78170Y-46931D01*
X78189Y-46950D01*
X78570Y-47312D02*
X78341Y-47312D01*
X78455Y-47312D02*
X78455Y-46912D01*
X78417Y-46969D01*
X78379Y-47007D01*
X78341Y-47026D01*
X78817Y-46912D02*
X78855Y-46912D01*
X78894Y-46931D01*
X78913Y-46950D01*
X78932Y-46988D01*
X78951Y-47064D01*
X78951Y-47160D01*
X78932Y-47236D01*
X78913Y-47274D01*
X78894Y-47293D01*
X78855Y-47312D01*
X78817Y-47312D01*
X78779Y-47293D01*
X78760Y-47274D01*
X78741Y-47236D01*
X78722Y-47160D01*
X78722Y-47064D01*
X78741Y-46988D01*
X78760Y-46950D01*
X78779Y-46931D01*
X78817Y-46912D01*
X80945Y-47274D02*
X80926Y-47293D01*
X80869Y-47312D01*
X80830Y-47312D01*
X80773Y-47293D01*
X80735Y-47255D01*
X80716Y-47217D01*
X80697Y-47141D01*
X80697Y-47083D01*
X80716Y-47007D01*
X80735Y-46969D01*
X80773Y-46931D01*
X80830Y-46912D01*
X80869Y-46912D01*
X80926Y-46931D01*
X80945Y-46950D01*
X81326Y-47312D02*
X81097Y-47312D01*
X81211Y-47312D02*
X81211Y-46912D01*
X81173Y-46969D01*
X81135Y-47007D01*
X81097Y-47026D01*
X81707Y-47312D02*
X81478Y-47312D01*
X81592Y-47312D02*
X81592Y-46912D01*
X81554Y-46969D01*
X81516Y-47007D01*
X81478Y-47026D01*
X83701Y-47274D02*
X83682Y-47293D01*
X83624Y-47312D01*
X83586Y-47312D01*
X83529Y-47293D01*
X83491Y-47255D01*
X83472Y-47217D01*
X83453Y-47141D01*
X83453Y-47083D01*
X83472Y-47007D01*
X83491Y-46969D01*
X83529Y-46931D01*
X83586Y-46912D01*
X83624Y-46912D01*
X83682Y-46931D01*
X83701Y-46950D01*
X84082Y-47312D02*
X83853Y-47312D01*
X83967Y-47312D02*
X83967Y-46912D01*
X83929Y-46969D01*
X83891Y-47007D01*
X83853Y-47026D01*
X84234Y-46950D02*
X84253Y-46931D01*
X84291Y-46912D01*
X84386Y-46912D01*
X84424Y-46931D01*
X84443Y-46950D01*
X84463Y-46988D01*
X84463Y-47026D01*
X84443Y-47083D01*
X84215Y-47312D01*
X84463Y-47312D01*
X69527Y-47274D02*
X69508Y-47293D01*
X69451Y-47312D01*
X69413Y-47312D01*
X69356Y-47293D01*
X69318Y-47255D01*
X69299Y-47217D01*
X69280Y-47141D01*
X69280Y-47083D01*
X69299Y-47007D01*
X69318Y-46969D01*
X69356Y-46931D01*
X69413Y-46912D01*
X69451Y-46912D01*
X69508Y-46931D01*
X69527Y-46950D01*
X69908Y-47312D02*
X69680Y-47312D01*
X69794Y-47312D02*
X69794Y-46912D01*
X69756Y-46969D01*
X69718Y-47007D01*
X69680Y-47026D01*
X70042Y-46912D02*
X70289Y-46912D01*
X70156Y-47064D01*
X70213Y-47064D01*
X70251Y-47083D01*
X70270Y-47102D01*
X70289Y-47141D01*
X70289Y-47236D01*
X70270Y-47274D01*
X70251Y-47293D01*
X70213Y-47312D01*
X70099Y-47312D01*
X70061Y-47293D01*
X70042Y-47274D01*
G54D19*
X32346Y-45414D02*
X32327Y-45433D01*
X32270Y-45452D01*
X32232Y-45452D01*
X32175Y-45433D01*
X32137Y-45395D01*
X32118Y-45357D01*
X32099Y-45281D01*
X32099Y-45224D01*
X32118Y-45147D01*
X32137Y-45109D01*
X32175Y-45071D01*
X32232Y-45052D01*
X32270Y-45052D01*
X32327Y-45071D01*
X32346Y-45090D01*
X32594Y-45052D02*
X32670Y-45052D01*
X32708Y-45071D01*
X32746Y-45109D01*
X32766Y-45185D01*
X32766Y-45319D01*
X32746Y-45395D01*
X32708Y-45433D01*
X32670Y-45452D01*
X32594Y-45452D01*
X32556Y-45433D01*
X32518Y-45395D01*
X32499Y-45319D01*
X32499Y-45185D01*
X32518Y-45109D01*
X32556Y-45071D01*
X32594Y-45052D01*
X32937Y-45452D02*
X32937Y-45052D01*
X33166Y-45452D01*
X33166Y-45052D01*
X33566Y-45452D02*
X33337Y-45452D01*
X33451Y-45452D02*
X33451Y-45052D01*
X33413Y-45109D01*
X33375Y-45147D01*
X33337Y-45166D01*
X32858Y-48243D02*
X32916Y-48262D01*
X32935Y-48281D01*
X32954Y-48319D01*
X32954Y-48376D01*
X32935Y-48414D01*
X32916Y-48433D01*
X32877Y-48452D01*
X32725Y-48452D01*
X32725Y-48052D01*
X32858Y-48052D01*
X32896Y-48071D01*
X32916Y-48090D01*
X32935Y-48128D01*
X32935Y-48166D01*
X32916Y-48204D01*
X32896Y-48224D01*
X32858Y-48243D01*
X32725Y-48243D01*
X33030Y-48490D02*
X33335Y-48490D01*
X33430Y-48452D02*
X33430Y-48052D01*
X33582Y-48052D01*
X33620Y-48071D01*
X33639Y-48090D01*
X33658Y-48128D01*
X33658Y-48185D01*
X33639Y-48224D01*
X33620Y-48243D01*
X33582Y-48262D01*
X33430Y-48262D01*
X33906Y-48052D02*
X33982Y-48052D01*
X34020Y-48071D01*
X34058Y-48109D01*
X34077Y-48185D01*
X34077Y-48319D01*
X34058Y-48395D01*
X34020Y-48433D01*
X33982Y-48452D01*
X33906Y-48452D01*
X33868Y-48433D01*
X33830Y-48395D01*
X33811Y-48319D01*
X33811Y-48185D01*
X33830Y-48109D01*
X33868Y-48071D01*
X33906Y-48052D01*
X34230Y-48433D02*
X34287Y-48452D01*
X34382Y-48452D01*
X34420Y-48433D01*
X34439Y-48414D01*
X34458Y-48376D01*
X34458Y-48338D01*
X34439Y-48300D01*
X34420Y-48281D01*
X34382Y-48262D01*
X34306Y-48243D01*
X34268Y-48224D01*
X34249Y-48204D01*
X34230Y-48166D01*
X34230Y-48128D01*
X34249Y-48090D01*
X34268Y-48071D01*
X34306Y-48052D01*
X34401Y-48052D01*
X34458Y-48071D01*
X34669Y-45414D02*
X34650Y-45433D01*
X34593Y-45452D01*
X34555Y-45452D01*
X34498Y-45433D01*
X34460Y-45395D01*
X34441Y-45357D01*
X34422Y-45281D01*
X34422Y-45224D01*
X34441Y-45147D01*
X34460Y-45109D01*
X34498Y-45071D01*
X34555Y-45052D01*
X34593Y-45052D01*
X34650Y-45071D01*
X34669Y-45090D01*
X34917Y-45052D02*
X34993Y-45052D01*
X35031Y-45071D01*
X35069Y-45109D01*
X35088Y-45185D01*
X35088Y-45319D01*
X35069Y-45395D01*
X35031Y-45433D01*
X34993Y-45452D01*
X34917Y-45452D01*
X34879Y-45433D01*
X34841Y-45395D01*
X34822Y-45319D01*
X34822Y-45185D01*
X34841Y-45109D01*
X34879Y-45071D01*
X34917Y-45052D01*
X35260Y-45452D02*
X35260Y-45052D01*
X35488Y-45452D01*
X35488Y-45052D01*
X35660Y-45090D02*
X35679Y-45071D01*
X35717Y-45052D01*
X35812Y-45052D01*
X35850Y-45071D01*
X35869Y-45090D01*
X35888Y-45128D01*
X35888Y-45166D01*
X35869Y-45224D01*
X35641Y-45452D01*
X35888Y-45452D01*
X35381Y-48243D02*
X35438Y-48262D01*
X35457Y-48281D01*
X35476Y-48319D01*
X35476Y-48376D01*
X35457Y-48414D01*
X35438Y-48433D01*
X35400Y-48452D01*
X35248Y-48452D01*
X35248Y-48052D01*
X35381Y-48052D01*
X35419Y-48071D01*
X35438Y-48090D01*
X35457Y-48128D01*
X35457Y-48166D01*
X35438Y-48204D01*
X35419Y-48224D01*
X35381Y-48243D01*
X35248Y-48243D01*
X35553Y-48490D02*
X35857Y-48490D01*
X35953Y-48452D02*
X35953Y-48052D01*
X36105Y-48052D01*
X36143Y-48071D01*
X36162Y-48090D01*
X36181Y-48128D01*
X36181Y-48185D01*
X36162Y-48224D01*
X36143Y-48243D01*
X36105Y-48262D01*
X35953Y-48262D01*
X36353Y-48452D02*
X36353Y-48052D01*
X36505Y-48052D01*
X36543Y-48071D01*
X36562Y-48090D01*
X36581Y-48128D01*
X36581Y-48185D01*
X36562Y-48224D01*
X36543Y-48243D01*
X36505Y-48262D01*
X36353Y-48262D01*
X46638Y-45138D02*
X46619Y-45157D01*
X46562Y-45177D01*
X46524Y-45177D01*
X46466Y-45157D01*
X46428Y-45119D01*
X46409Y-45081D01*
X46390Y-45005D01*
X46390Y-44948D01*
X46409Y-44872D01*
X46428Y-44834D01*
X46466Y-44796D01*
X46524Y-44777D01*
X46562Y-44777D01*
X46619Y-44796D01*
X46638Y-44815D01*
X46885Y-44777D02*
X46962Y-44777D01*
X47000Y-44796D01*
X47038Y-44834D01*
X47057Y-44910D01*
X47057Y-45043D01*
X47038Y-45119D01*
X47000Y-45157D01*
X46962Y-45177D01*
X46885Y-45177D01*
X46847Y-45157D01*
X46809Y-45119D01*
X46790Y-45043D01*
X46790Y-44910D01*
X46809Y-44834D01*
X46847Y-44796D01*
X46885Y-44777D01*
X47228Y-45177D02*
X47228Y-44777D01*
X47457Y-45177D01*
X47457Y-44777D01*
X47609Y-44777D02*
X47857Y-44777D01*
X47724Y-44929D01*
X47781Y-44929D01*
X47819Y-44948D01*
X47838Y-44967D01*
X47857Y-45005D01*
X47857Y-45100D01*
X47838Y-45138D01*
X47819Y-45157D01*
X47781Y-45177D01*
X47666Y-45177D01*
X47628Y-45157D01*
X47609Y-45138D01*
X47159Y-47967D02*
X47216Y-47986D01*
X47235Y-48005D01*
X47254Y-48043D01*
X47254Y-48100D01*
X47235Y-48138D01*
X47216Y-48157D01*
X47178Y-48177D01*
X47026Y-48177D01*
X47026Y-47777D01*
X47159Y-47777D01*
X47197Y-47796D01*
X47216Y-47815D01*
X47235Y-47853D01*
X47235Y-47891D01*
X47216Y-47929D01*
X47197Y-47948D01*
X47159Y-47967D01*
X47026Y-47967D01*
X47331Y-48215D02*
X47635Y-48215D01*
X47731Y-48177D02*
X47731Y-47777D01*
X47959Y-48177D01*
X47959Y-47777D01*
X48150Y-47967D02*
X48283Y-47967D01*
X48340Y-48177D02*
X48150Y-48177D01*
X48150Y-47777D01*
X48340Y-47777D01*
X48721Y-47796D02*
X48683Y-47777D01*
X48626Y-47777D01*
X48569Y-47796D01*
X48531Y-47834D01*
X48512Y-47872D01*
X48493Y-47948D01*
X48493Y-48005D01*
X48512Y-48081D01*
X48531Y-48119D01*
X48569Y-48157D01*
X48626Y-48177D01*
X48664Y-48177D01*
X48721Y-48157D01*
X48740Y-48138D01*
X48740Y-48005D01*
X48664Y-48005D01*
X43606Y-44194D02*
X43587Y-44213D01*
X43530Y-44232D01*
X43492Y-44232D01*
X43435Y-44213D01*
X43397Y-44174D01*
X43378Y-44136D01*
X43359Y-44060D01*
X43359Y-44003D01*
X43378Y-43927D01*
X43397Y-43889D01*
X43435Y-43851D01*
X43492Y-43832D01*
X43530Y-43832D01*
X43587Y-43851D01*
X43606Y-43870D01*
X43854Y-43832D02*
X43930Y-43832D01*
X43968Y-43851D01*
X44006Y-43889D01*
X44025Y-43965D01*
X44025Y-44098D01*
X44006Y-44174D01*
X43968Y-44213D01*
X43930Y-44232D01*
X43854Y-44232D01*
X43816Y-44213D01*
X43778Y-44174D01*
X43759Y-44098D01*
X43759Y-43965D01*
X43778Y-43889D01*
X43816Y-43851D01*
X43854Y-43832D01*
X44197Y-44232D02*
X44197Y-43832D01*
X44425Y-44232D01*
X44425Y-43832D01*
X44787Y-43965D02*
X44787Y-44232D01*
X44692Y-43813D02*
X44597Y-44098D01*
X44844Y-44098D01*
X44718Y-47022D02*
X44775Y-47041D01*
X44794Y-47060D01*
X44813Y-47098D01*
X44813Y-47155D01*
X44794Y-47194D01*
X44775Y-47213D01*
X44737Y-47232D01*
X44585Y-47232D01*
X44585Y-46832D01*
X44718Y-46832D01*
X44756Y-46851D01*
X44775Y-46870D01*
X44794Y-46908D01*
X44794Y-46946D01*
X44775Y-46984D01*
X44756Y-47003D01*
X44718Y-47022D01*
X44585Y-47022D01*
X44928Y-46832D02*
X45156Y-46832D01*
X45042Y-47232D02*
X45042Y-46832D01*
X40634Y-44863D02*
X40615Y-44882D01*
X40558Y-44901D01*
X40520Y-44901D01*
X40462Y-44882D01*
X40424Y-44844D01*
X40405Y-44806D01*
X40386Y-44729D01*
X40386Y-44672D01*
X40405Y-44596D01*
X40424Y-44558D01*
X40462Y-44520D01*
X40520Y-44501D01*
X40558Y-44501D01*
X40615Y-44520D01*
X40634Y-44539D01*
X40881Y-44501D02*
X40958Y-44501D01*
X40996Y-44520D01*
X41034Y-44558D01*
X41053Y-44634D01*
X41053Y-44768D01*
X41034Y-44844D01*
X40996Y-44882D01*
X40958Y-44901D01*
X40881Y-44901D01*
X40843Y-44882D01*
X40805Y-44844D01*
X40786Y-44768D01*
X40786Y-44634D01*
X40805Y-44558D01*
X40843Y-44520D01*
X40881Y-44501D01*
X41224Y-44901D02*
X41224Y-44501D01*
X41453Y-44901D01*
X41453Y-44501D01*
X41834Y-44501D02*
X41643Y-44501D01*
X41624Y-44691D01*
X41643Y-44672D01*
X41681Y-44653D01*
X41777Y-44653D01*
X41815Y-44672D01*
X41834Y-44691D01*
X41853Y-44729D01*
X41853Y-44825D01*
X41834Y-44863D01*
X41815Y-44882D01*
X41777Y-44901D01*
X41681Y-44901D01*
X41643Y-44882D01*
X41624Y-44863D01*
X40860Y-47901D02*
X40670Y-47901D01*
X40670Y-47501D01*
X40993Y-47691D02*
X41127Y-47691D01*
X41184Y-47901D02*
X40993Y-47901D01*
X40993Y-47501D01*
X41184Y-47501D01*
X41355Y-47901D02*
X41355Y-47501D01*
X41451Y-47501D01*
X41508Y-47520D01*
X41546Y-47558D01*
X41565Y-47596D01*
X41584Y-47672D01*
X41584Y-47729D01*
X41565Y-47806D01*
X41546Y-47844D01*
X41508Y-47882D01*
X41451Y-47901D01*
X41355Y-47901D01*
X41660Y-47939D02*
X41965Y-47939D01*
X42060Y-47901D02*
X42060Y-47501D01*
X42212Y-47501D01*
X42251Y-47520D01*
X42270Y-47539D01*
X42289Y-47577D01*
X42289Y-47634D01*
X42270Y-47672D01*
X42251Y-47691D01*
X42212Y-47710D01*
X42060Y-47710D01*
X42536Y-47501D02*
X42612Y-47501D01*
X42651Y-47520D01*
X42689Y-47558D01*
X42708Y-47634D01*
X42708Y-47768D01*
X42689Y-47844D01*
X42651Y-47882D01*
X42612Y-47901D01*
X42536Y-47901D01*
X42498Y-47882D01*
X42460Y-47844D01*
X42441Y-47768D01*
X42441Y-47634D01*
X42460Y-47558D01*
X42498Y-47520D01*
X42536Y-47501D01*
X42860Y-47882D02*
X42917Y-47901D01*
X43012Y-47901D01*
X43051Y-47882D01*
X43070Y-47863D01*
X43089Y-47825D01*
X43089Y-47787D01*
X43070Y-47749D01*
X43051Y-47729D01*
X43012Y-47710D01*
X42936Y-47691D01*
X42898Y-47672D01*
X42879Y-47653D01*
X42860Y-47615D01*
X42860Y-47577D01*
X42879Y-47539D01*
X42898Y-47520D01*
X42936Y-47501D01*
X43031Y-47501D01*
X43089Y-47520D01*
X37622Y-45060D02*
X37603Y-45079D01*
X37546Y-45098D01*
X37508Y-45098D01*
X37451Y-45079D01*
X37413Y-45041D01*
X37393Y-45003D01*
X37374Y-44926D01*
X37374Y-44869D01*
X37393Y-44793D01*
X37413Y-44755D01*
X37451Y-44717D01*
X37508Y-44698D01*
X37546Y-44698D01*
X37603Y-44717D01*
X37622Y-44736D01*
X37870Y-44698D02*
X37946Y-44698D01*
X37984Y-44717D01*
X38022Y-44755D01*
X38041Y-44831D01*
X38041Y-44964D01*
X38022Y-45041D01*
X37984Y-45079D01*
X37946Y-45098D01*
X37870Y-45098D01*
X37832Y-45079D01*
X37793Y-45041D01*
X37774Y-44964D01*
X37774Y-44831D01*
X37793Y-44755D01*
X37832Y-44717D01*
X37870Y-44698D01*
X38213Y-45098D02*
X38213Y-44698D01*
X38441Y-45098D01*
X38441Y-44698D01*
X38803Y-44698D02*
X38727Y-44698D01*
X38689Y-44717D01*
X38670Y-44736D01*
X38632Y-44793D01*
X38613Y-44869D01*
X38613Y-45022D01*
X38632Y-45060D01*
X38651Y-45079D01*
X38689Y-45098D01*
X38765Y-45098D01*
X38803Y-45079D01*
X38822Y-45060D01*
X38841Y-45022D01*
X38841Y-44926D01*
X38822Y-44888D01*
X38803Y-44869D01*
X38765Y-44850D01*
X38689Y-44850D01*
X38651Y-44869D01*
X38632Y-44888D01*
X38613Y-44926D01*
X37858Y-48098D02*
X37667Y-48098D01*
X37667Y-47698D01*
X37991Y-47888D02*
X38124Y-47888D01*
X38182Y-48098D02*
X37991Y-48098D01*
X37991Y-47698D01*
X38182Y-47698D01*
X38353Y-48098D02*
X38353Y-47698D01*
X38448Y-47698D01*
X38505Y-47717D01*
X38543Y-47755D01*
X38563Y-47793D01*
X38582Y-47869D01*
X38582Y-47926D01*
X38563Y-48003D01*
X38543Y-48041D01*
X38505Y-48079D01*
X38448Y-48098D01*
X38353Y-48098D01*
X38658Y-48136D02*
X38963Y-48136D01*
X39058Y-48098D02*
X39058Y-47698D01*
X39286Y-48098D01*
X39286Y-47698D01*
X39477Y-47888D02*
X39610Y-47888D01*
X39667Y-48098D02*
X39477Y-48098D01*
X39477Y-47698D01*
X39667Y-47698D01*
X40048Y-47717D02*
X40010Y-47698D01*
X39953Y-47698D01*
X39896Y-47717D01*
X39858Y-47755D01*
X39839Y-47793D01*
X39820Y-47869D01*
X39820Y-47926D01*
X39839Y-48003D01*
X39858Y-48041D01*
X39896Y-48079D01*
X39953Y-48098D01*
X39991Y-48098D01*
X40048Y-48079D01*
X40067Y-48060D01*
X40067Y-47926D01*
X39991Y-47926D01*
X28862Y-45001D02*
X28843Y-45020D01*
X28786Y-45039D01*
X28748Y-45039D01*
X28691Y-45020D01*
X28653Y-44982D01*
X28634Y-44943D01*
X28615Y-44867D01*
X28615Y-44810D01*
X28634Y-44734D01*
X28653Y-44696D01*
X28691Y-44658D01*
X28748Y-44639D01*
X28786Y-44639D01*
X28843Y-44658D01*
X28862Y-44677D01*
X29110Y-44639D02*
X29186Y-44639D01*
X29224Y-44658D01*
X29262Y-44696D01*
X29281Y-44772D01*
X29281Y-44905D01*
X29262Y-44982D01*
X29224Y-45020D01*
X29186Y-45039D01*
X29110Y-45039D01*
X29072Y-45020D01*
X29034Y-44982D01*
X29015Y-44905D01*
X29015Y-44772D01*
X29034Y-44696D01*
X29072Y-44658D01*
X29110Y-44639D01*
X29453Y-45039D02*
X29453Y-44639D01*
X29681Y-45039D01*
X29681Y-44639D01*
X29834Y-44639D02*
X30100Y-44639D01*
X29929Y-45039D01*
X29288Y-48039D02*
X29098Y-48039D01*
X29098Y-47639D01*
X29422Y-47829D02*
X29555Y-47829D01*
X29612Y-48039D02*
X29422Y-48039D01*
X29422Y-47639D01*
X29612Y-47639D01*
X29784Y-48039D02*
X29784Y-47639D01*
X29879Y-47639D01*
X29936Y-47658D01*
X29974Y-47696D01*
X29993Y-47734D01*
X30012Y-47810D01*
X30012Y-47867D01*
X29993Y-47943D01*
X29974Y-47982D01*
X29936Y-48020D01*
X29879Y-48039D01*
X29784Y-48039D01*
X30088Y-48077D02*
X30393Y-48077D01*
X30488Y-48039D02*
X30488Y-47639D01*
X30641Y-47639D01*
X30679Y-47658D01*
X30698Y-47677D01*
X30717Y-47715D01*
X30717Y-47772D01*
X30698Y-47810D01*
X30679Y-47829D01*
X30641Y-47848D01*
X30488Y-47848D01*
X30888Y-48039D02*
X30888Y-47639D01*
X31041Y-47639D01*
X31079Y-47658D01*
X31098Y-47677D01*
X31117Y-47715D01*
X31117Y-47772D01*
X31098Y-47810D01*
X31079Y-47829D01*
X31041Y-47848D01*
X30888Y-47848D01*
X30654Y-49036D02*
X30635Y-49055D01*
X30577Y-49074D01*
X30539Y-49074D01*
X30482Y-49055D01*
X30444Y-49017D01*
X30425Y-48979D01*
X30406Y-48903D01*
X30406Y-48846D01*
X30425Y-48769D01*
X30444Y-48731D01*
X30482Y-48693D01*
X30539Y-48674D01*
X30577Y-48674D01*
X30635Y-48693D01*
X30654Y-48712D01*
X30901Y-48674D02*
X30977Y-48674D01*
X31015Y-48693D01*
X31054Y-48731D01*
X31073Y-48807D01*
X31073Y-48941D01*
X31054Y-49017D01*
X31015Y-49055D01*
X30977Y-49074D01*
X30901Y-49074D01*
X30863Y-49055D01*
X30825Y-49017D01*
X30806Y-48941D01*
X30806Y-48807D01*
X30825Y-48731D01*
X30863Y-48693D01*
X30901Y-48674D01*
X31244Y-49074D02*
X31244Y-48674D01*
X31473Y-49074D01*
X31473Y-48674D01*
X31682Y-49074D02*
X31758Y-49074D01*
X31796Y-49055D01*
X31815Y-49036D01*
X31854Y-48979D01*
X31873Y-48903D01*
X31873Y-48750D01*
X31854Y-48712D01*
X31835Y-48693D01*
X31796Y-48674D01*
X31720Y-48674D01*
X31682Y-48693D01*
X31663Y-48712D01*
X31644Y-48750D01*
X31644Y-48846D01*
X31663Y-48884D01*
X31682Y-48903D01*
X31720Y-48922D01*
X31796Y-48922D01*
X31835Y-48903D01*
X31854Y-48884D01*
X31873Y-48846D01*
X31461Y-52074D02*
X31461Y-51674D01*
X31594Y-51960D01*
X31727Y-51674D01*
X31727Y-52074D01*
X31918Y-52074D02*
X31918Y-51674D01*
X32337Y-52036D02*
X32318Y-52055D01*
X32261Y-52074D01*
X32223Y-52074D01*
X32165Y-52055D01*
X32127Y-52017D01*
X32108Y-51979D01*
X32089Y-51903D01*
X32089Y-51846D01*
X32108Y-51769D01*
X32127Y-51731D01*
X32165Y-51693D01*
X32223Y-51674D01*
X32261Y-51674D01*
X32318Y-51693D01*
X32337Y-51712D01*
G54D16*
X39481Y-50520D02*
X39462Y-50539D01*
X39405Y-50558D01*
X39367Y-50558D01*
X39309Y-50539D01*
X39271Y-50501D01*
X39252Y-50463D01*
X39233Y-50387D01*
X39233Y-50330D01*
X39252Y-50254D01*
X39271Y-50216D01*
X39309Y-50177D01*
X39367Y-50158D01*
X39405Y-50158D01*
X39462Y-50177D01*
X39481Y-50197D01*
X39728Y-50158D02*
X39805Y-50158D01*
X39843Y-50177D01*
X39881Y-50216D01*
X39900Y-50292D01*
X39900Y-50425D01*
X39881Y-50501D01*
X39843Y-50539D01*
X39805Y-50558D01*
X39728Y-50558D01*
X39690Y-50539D01*
X39652Y-50501D01*
X39633Y-50425D01*
X39633Y-50292D01*
X39652Y-50216D01*
X39690Y-50177D01*
X39728Y-50158D01*
X40071Y-50558D02*
X40071Y-50158D01*
X40300Y-50558D01*
X40300Y-50158D01*
X40700Y-50558D02*
X40471Y-50558D01*
X40586Y-50558D02*
X40586Y-50158D01*
X40547Y-50216D01*
X40509Y-50254D01*
X40471Y-50273D01*
X40947Y-50158D02*
X40986Y-50158D01*
X41024Y-50177D01*
X41043Y-50197D01*
X41062Y-50235D01*
X41081Y-50311D01*
X41081Y-50406D01*
X41062Y-50482D01*
X41043Y-50520D01*
X41024Y-50539D01*
X40986Y-50558D01*
X40947Y-50558D01*
X40909Y-50539D01*
X40890Y-50520D01*
X40871Y-50482D01*
X40852Y-50406D01*
X40852Y-50311D01*
X40871Y-50235D01*
X40890Y-50197D01*
X40909Y-50177D01*
X40947Y-50158D01*
X39481Y-49142D02*
X39462Y-49161D01*
X39405Y-49180D01*
X39367Y-49180D01*
X39309Y-49161D01*
X39271Y-49123D01*
X39252Y-49085D01*
X39233Y-49009D01*
X39233Y-48952D01*
X39252Y-48876D01*
X39271Y-48838D01*
X39309Y-48800D01*
X39367Y-48780D01*
X39405Y-48780D01*
X39462Y-48800D01*
X39481Y-48819D01*
X39728Y-48780D02*
X39805Y-48780D01*
X39843Y-48800D01*
X39881Y-48838D01*
X39900Y-48914D01*
X39900Y-49047D01*
X39881Y-49123D01*
X39843Y-49161D01*
X39805Y-49180D01*
X39728Y-49180D01*
X39690Y-49161D01*
X39652Y-49123D01*
X39633Y-49047D01*
X39633Y-48914D01*
X39652Y-48838D01*
X39690Y-48800D01*
X39728Y-48780D01*
X40071Y-49180D02*
X40071Y-48780D01*
X40300Y-49180D01*
X40300Y-48780D01*
X40700Y-49180D02*
X40471Y-49180D01*
X40586Y-49180D02*
X40586Y-48780D01*
X40547Y-48838D01*
X40509Y-48876D01*
X40471Y-48895D01*
X41081Y-49180D02*
X40852Y-49180D01*
X40967Y-49180D02*
X40967Y-48780D01*
X40928Y-48838D01*
X40890Y-48876D01*
X40852Y-48895D01*
X59586Y-36952D02*
X59586Y-36552D01*
X59681Y-36552D01*
X59739Y-36571D01*
X59777Y-36609D01*
X59796Y-36647D01*
X59815Y-36724D01*
X59815Y-36781D01*
X59796Y-36857D01*
X59777Y-36895D01*
X59739Y-36933D01*
X59681Y-36952D01*
X59586Y-36952D01*
X60196Y-36952D02*
X59967Y-36952D01*
X60081Y-36952D02*
X60081Y-36552D01*
X60043Y-36609D01*
X60005Y-36647D01*
X59967Y-36666D01*
X59685Y-38054D02*
X59685Y-37654D01*
X59780Y-37654D01*
X59837Y-37674D01*
X59875Y-37712D01*
X59894Y-37750D01*
X59913Y-37826D01*
X59913Y-37883D01*
X59894Y-37959D01*
X59875Y-37997D01*
X59837Y-38035D01*
X59780Y-38054D01*
X59685Y-38054D01*
X60066Y-37693D02*
X60085Y-37674D01*
X60123Y-37654D01*
X60218Y-37654D01*
X60256Y-37674D01*
X60275Y-37693D01*
X60294Y-37731D01*
X60294Y-37769D01*
X60275Y-37826D01*
X60046Y-38054D01*
X60294Y-38054D01*
X59744Y-39137D02*
X59744Y-38737D01*
X59839Y-38737D01*
X59896Y-38756D01*
X59934Y-38794D01*
X59953Y-38832D01*
X59972Y-38909D01*
X59972Y-38966D01*
X59953Y-39042D01*
X59934Y-39080D01*
X59896Y-39118D01*
X59839Y-39137D01*
X59744Y-39137D01*
X60106Y-38737D02*
X60353Y-38737D01*
X60220Y-38890D01*
X60277Y-38890D01*
X60315Y-38909D01*
X60334Y-38928D01*
X60353Y-38966D01*
X60353Y-39061D01*
X60334Y-39099D01*
X60315Y-39118D01*
X60277Y-39137D01*
X60163Y-39137D01*
X60125Y-39118D01*
X60106Y-39099D01*
X59803Y-40240D02*
X59803Y-39840D01*
X59898Y-39840D01*
X59955Y-39859D01*
X59993Y-39897D01*
X60012Y-39935D01*
X60031Y-40011D01*
X60031Y-40068D01*
X60012Y-40144D01*
X59993Y-40182D01*
X59955Y-40220D01*
X59898Y-40240D01*
X59803Y-40240D01*
X60374Y-39973D02*
X60374Y-40240D01*
X60279Y-39820D02*
X60184Y-40106D01*
X60431Y-40106D01*
X59901Y-41145D02*
X59901Y-40745D01*
X59996Y-40745D01*
X60053Y-40764D01*
X60092Y-40802D01*
X60111Y-40840D01*
X60130Y-40916D01*
X60130Y-40974D01*
X60111Y-41050D01*
X60092Y-41088D01*
X60053Y-41126D01*
X59996Y-41145D01*
X59901Y-41145D01*
X60492Y-40745D02*
X60301Y-40745D01*
X60282Y-40935D01*
X60301Y-40916D01*
X60339Y-40897D01*
X60434Y-40897D01*
X60473Y-40916D01*
X60492Y-40935D01*
X60511Y-40974D01*
X60511Y-41069D01*
X60492Y-41107D01*
X60473Y-41126D01*
X60434Y-41145D01*
X60339Y-41145D01*
X60301Y-41126D01*
X60282Y-41107D01*
X60137Y-42247D02*
X60137Y-41847D01*
X60233Y-41847D01*
X60290Y-41866D01*
X60328Y-41905D01*
X60347Y-41943D01*
X60366Y-42019D01*
X60366Y-42076D01*
X60347Y-42152D01*
X60328Y-42190D01*
X60290Y-42228D01*
X60233Y-42247D01*
X60137Y-42247D01*
X60709Y-41847D02*
X60633Y-41847D01*
X60594Y-41866D01*
X60575Y-41885D01*
X60537Y-41943D01*
X60518Y-42019D01*
X60518Y-42171D01*
X60537Y-42209D01*
X60556Y-42228D01*
X60594Y-42247D01*
X60671Y-42247D01*
X60709Y-42228D01*
X60728Y-42209D01*
X60747Y-42171D01*
X60747Y-42076D01*
X60728Y-42038D01*
X60709Y-42019D01*
X60671Y-42000D01*
X60594Y-42000D01*
X60556Y-42019D01*
X60537Y-42038D01*
X60518Y-42076D01*
X60216Y-43350D02*
X60216Y-42950D01*
X60311Y-42950D01*
X60368Y-42969D01*
X60407Y-43007D01*
X60426Y-43045D01*
X60445Y-43121D01*
X60445Y-43178D01*
X60426Y-43255D01*
X60407Y-43293D01*
X60368Y-43331D01*
X60311Y-43350D01*
X60216Y-43350D01*
X60578Y-42950D02*
X60845Y-42950D01*
X60673Y-43350D01*
X60295Y-44413D02*
X60295Y-44013D01*
X60390Y-44013D01*
X60447Y-44032D01*
X60485Y-44070D01*
X60504Y-44108D01*
X60523Y-44184D01*
X60523Y-44241D01*
X60504Y-44317D01*
X60485Y-44356D01*
X60447Y-44394D01*
X60390Y-44413D01*
X60295Y-44413D01*
X60752Y-44184D02*
X60714Y-44165D01*
X60695Y-44146D01*
X60676Y-44108D01*
X60676Y-44089D01*
X60695Y-44051D01*
X60714Y-44032D01*
X60752Y-44013D01*
X60828Y-44013D01*
X60866Y-44032D01*
X60885Y-44051D01*
X60904Y-44089D01*
X60904Y-44108D01*
X60885Y-44146D01*
X60866Y-44165D01*
X60828Y-44184D01*
X60752Y-44184D01*
X60714Y-44203D01*
X60695Y-44222D01*
X60676Y-44260D01*
X60676Y-44337D01*
X60695Y-44375D01*
X60714Y-44394D01*
X60752Y-44413D01*
X60828Y-44413D01*
X60866Y-44394D01*
X60885Y-44375D01*
X60904Y-44337D01*
X60904Y-44260D01*
X60885Y-44222D01*
X60866Y-44203D01*
X60828Y-44184D01*
X60334Y-45535D02*
X60334Y-45135D01*
X60429Y-45135D01*
X60487Y-45154D01*
X60525Y-45192D01*
X60544Y-45230D01*
X60563Y-45306D01*
X60563Y-45363D01*
X60544Y-45440D01*
X60525Y-45478D01*
X60487Y-45516D01*
X60429Y-45535D01*
X60334Y-45535D01*
X60753Y-45535D02*
X60829Y-45535D01*
X60868Y-45516D01*
X60887Y-45497D01*
X60925Y-45440D01*
X60944Y-45363D01*
X60944Y-45211D01*
X60925Y-45173D01*
X60906Y-45154D01*
X60868Y-45135D01*
X60791Y-45135D01*
X60753Y-45154D01*
X60734Y-45173D01*
X60715Y-45211D01*
X60715Y-45306D01*
X60734Y-45344D01*
X60753Y-45363D01*
X60791Y-45382D01*
X60868Y-45382D01*
X60906Y-45363D01*
X60925Y-45344D01*
X60944Y-45306D01*
X60085Y-34905D02*
X60085Y-34505D01*
X60180Y-34505D01*
X60237Y-34524D01*
X60275Y-34562D01*
X60294Y-34600D01*
X60313Y-34676D01*
X60313Y-34733D01*
X60294Y-34810D01*
X60275Y-34848D01*
X60237Y-34886D01*
X60180Y-34905D01*
X60085Y-34905D01*
X60694Y-34905D02*
X60466Y-34905D01*
X60580Y-34905D02*
X60580Y-34505D01*
X60542Y-34562D01*
X60504Y-34600D01*
X60466Y-34619D01*
X60942Y-34505D02*
X60980Y-34505D01*
X61018Y-34524D01*
X61037Y-34543D01*
X61056Y-34581D01*
X61075Y-34657D01*
X61075Y-34752D01*
X61056Y-34829D01*
X61037Y-34867D01*
X61018Y-34886D01*
X60980Y-34905D01*
X60942Y-34905D01*
X60904Y-34886D01*
X60885Y-34867D01*
X60866Y-34829D01*
X60847Y-34752D01*
X60847Y-34657D01*
X60866Y-34581D01*
X60885Y-34543D01*
X60904Y-34524D01*
X60942Y-34505D01*
X60380Y-33493D02*
X60380Y-32993D01*
X60475Y-32993D01*
X60532Y-33017D01*
X60570Y-33065D01*
X60589Y-33112D01*
X60608Y-33208D01*
X60608Y-33279D01*
X60589Y-33374D01*
X60570Y-33422D01*
X60532Y-33470D01*
X60475Y-33493D01*
X60380Y-33493D01*
X60989Y-33493D02*
X60761Y-33493D01*
X60875Y-33493D02*
X60875Y-32993D01*
X60837Y-33065D01*
X60799Y-33112D01*
X60761Y-33136D01*
X61370Y-33493D02*
X61142Y-33493D01*
X61256Y-33493D02*
X61256Y-32993D01*
X61218Y-33065D01*
X61180Y-33112D01*
X61142Y-33136D01*
G54D15*
X89148Y-47023D02*
X89148Y-46723D01*
X89262Y-46723D01*
X89291Y-46737D01*
X89305Y-46752D01*
X89320Y-46780D01*
X89320Y-46823D01*
X89305Y-46852D01*
X89291Y-46866D01*
X89262Y-46880D01*
X89148Y-46880D01*
X89605Y-47023D02*
X89434Y-47023D01*
X89520Y-47023D02*
X89520Y-46723D01*
X89491Y-46766D01*
X89462Y-46794D01*
X89434Y-46809D01*
X86392Y-47023D02*
X86392Y-46723D01*
X86507Y-46723D01*
X86535Y-46737D01*
X86549Y-46752D01*
X86564Y-46780D01*
X86564Y-46823D01*
X86549Y-46852D01*
X86535Y-46866D01*
X86507Y-46880D01*
X86392Y-46880D01*
X86678Y-46752D02*
X86692Y-46737D01*
X86721Y-46723D01*
X86792Y-46723D01*
X86821Y-46737D01*
X86835Y-46752D01*
X86849Y-46780D01*
X86849Y-46809D01*
X86835Y-46852D01*
X86664Y-47023D01*
X86849Y-47023D01*
G54D16*
X17178Y-46994D02*
X17140Y-46975D01*
X17102Y-46937D01*
X17045Y-46880D01*
X17007Y-46861D01*
X16968Y-46861D01*
X16987Y-46956D02*
X16949Y-46937D01*
X16911Y-46899D01*
X16892Y-46823D01*
X16892Y-46689D01*
X16911Y-46613D01*
X16949Y-46575D01*
X16987Y-46556D01*
X17064Y-46556D01*
X17102Y-46575D01*
X17140Y-46613D01*
X17159Y-46689D01*
X17159Y-46823D01*
X17140Y-46899D01*
X17102Y-46937D01*
X17064Y-46956D01*
X16987Y-46956D01*
X17540Y-46956D02*
X17311Y-46956D01*
X17426Y-46956D02*
X17426Y-46556D01*
X17387Y-46613D01*
X17349Y-46651D01*
X17311Y-46670D01*
X16473Y-43247D02*
X16530Y-43266D01*
X16549Y-43285D01*
X16568Y-43323D01*
X16568Y-43380D01*
X16549Y-43418D01*
X16530Y-43437D01*
X16492Y-43456D01*
X16340Y-43456D01*
X16340Y-43056D01*
X16473Y-43056D01*
X16511Y-43075D01*
X16530Y-43094D01*
X16549Y-43132D01*
X16549Y-43170D01*
X16530Y-43208D01*
X16511Y-43227D01*
X16473Y-43247D01*
X16340Y-43247D01*
X16968Y-43418D02*
X16949Y-43437D01*
X16892Y-43456D01*
X16854Y-43456D01*
X16797Y-43437D01*
X16759Y-43399D01*
X16740Y-43361D01*
X16721Y-43285D01*
X16721Y-43227D01*
X16740Y-43151D01*
X16759Y-43113D01*
X16797Y-43075D01*
X16854Y-43056D01*
X16892Y-43056D01*
X16949Y-43075D01*
X16968Y-43094D01*
X17330Y-43056D02*
X17140Y-43056D01*
X17121Y-43247D01*
X17140Y-43227D01*
X17178Y-43208D01*
X17273Y-43208D01*
X17311Y-43227D01*
X17330Y-43247D01*
X17349Y-43285D01*
X17349Y-43380D01*
X17330Y-43418D01*
X17311Y-43437D01*
X17273Y-43456D01*
X17178Y-43456D01*
X17140Y-43437D01*
X17121Y-43418D01*
X17692Y-43189D02*
X17692Y-43456D01*
X17597Y-43037D02*
X17502Y-43323D01*
X17749Y-43323D01*
X17959Y-43227D02*
X17921Y-43208D01*
X17902Y-43189D01*
X17883Y-43151D01*
X17883Y-43132D01*
X17902Y-43094D01*
X17921Y-43075D01*
X17959Y-43056D01*
X18035Y-43056D01*
X18073Y-43075D01*
X18092Y-43094D01*
X18111Y-43132D01*
X18111Y-43151D01*
X18092Y-43189D01*
X18073Y-43208D01*
X18035Y-43227D01*
X17959Y-43227D01*
X17921Y-43247D01*
X17902Y-43266D01*
X17883Y-43304D01*
X17883Y-43380D01*
X17902Y-43418D01*
X17921Y-43437D01*
X17959Y-43456D01*
X18035Y-43456D01*
X18073Y-43437D01*
X18092Y-43418D01*
X18111Y-43380D01*
X18111Y-43304D01*
X18092Y-43266D01*
X18073Y-43247D01*
X18035Y-43227D01*
X23083Y-46600D02*
X23045Y-46581D01*
X23007Y-46543D01*
X22950Y-46486D01*
X22912Y-46467D01*
X22874Y-46467D01*
X22893Y-46562D02*
X22855Y-46543D01*
X22817Y-46505D01*
X22798Y-46429D01*
X22798Y-46296D01*
X22817Y-46219D01*
X22855Y-46181D01*
X22893Y-46162D01*
X22969Y-46162D01*
X23007Y-46181D01*
X23045Y-46219D01*
X23064Y-46296D01*
X23064Y-46429D01*
X23045Y-46505D01*
X23007Y-46543D01*
X22969Y-46562D01*
X22893Y-46562D01*
X23217Y-46200D02*
X23236Y-46181D01*
X23274Y-46162D01*
X23369Y-46162D01*
X23407Y-46181D01*
X23426Y-46200D01*
X23445Y-46239D01*
X23445Y-46277D01*
X23426Y-46334D01*
X23198Y-46562D01*
X23445Y-46562D01*
X22379Y-42853D02*
X22436Y-42872D01*
X22455Y-42891D01*
X22474Y-42929D01*
X22474Y-42986D01*
X22455Y-43024D01*
X22436Y-43043D01*
X22398Y-43062D01*
X22245Y-43062D01*
X22245Y-42662D01*
X22379Y-42662D01*
X22417Y-42681D01*
X22436Y-42700D01*
X22455Y-42739D01*
X22455Y-42777D01*
X22436Y-42815D01*
X22417Y-42834D01*
X22379Y-42853D01*
X22245Y-42853D01*
X22874Y-43024D02*
X22855Y-43043D01*
X22798Y-43062D01*
X22760Y-43062D01*
X22703Y-43043D01*
X22664Y-43005D01*
X22645Y-42967D01*
X22626Y-42891D01*
X22626Y-42834D01*
X22645Y-42758D01*
X22664Y-42719D01*
X22703Y-42681D01*
X22760Y-42662D01*
X22798Y-42662D01*
X22855Y-42681D01*
X22874Y-42700D01*
X23236Y-42662D02*
X23045Y-42662D01*
X23026Y-42853D01*
X23045Y-42834D01*
X23083Y-42815D01*
X23179Y-42815D01*
X23217Y-42834D01*
X23236Y-42853D01*
X23255Y-42891D01*
X23255Y-42986D01*
X23236Y-43024D01*
X23217Y-43043D01*
X23179Y-43062D01*
X23083Y-43062D01*
X23045Y-43043D01*
X23026Y-43024D01*
X23598Y-42796D02*
X23598Y-43062D01*
X23503Y-42643D02*
X23407Y-42929D01*
X23655Y-42929D01*
X23864Y-42834D02*
X23826Y-42815D01*
X23807Y-42796D01*
X23788Y-42758D01*
X23788Y-42739D01*
X23807Y-42700D01*
X23826Y-42681D01*
X23864Y-42662D01*
X23941Y-42662D01*
X23979Y-42681D01*
X23998Y-42700D01*
X24017Y-42739D01*
X24017Y-42758D01*
X23998Y-42796D01*
X23979Y-42815D01*
X23941Y-42834D01*
X23864Y-42834D01*
X23826Y-42853D01*
X23807Y-42872D01*
X23788Y-42910D01*
X23788Y-42986D01*
X23807Y-43024D01*
X23826Y-43043D01*
X23864Y-43062D01*
X23941Y-43062D01*
X23979Y-43043D01*
X23998Y-43024D01*
X24017Y-42986D01*
X24017Y-42910D01*
X23998Y-42872D01*
X23979Y-42853D01*
X23941Y-42834D01*
X20328Y-46207D02*
X20289Y-46188D01*
X20251Y-46150D01*
X20194Y-46092D01*
X20156Y-46073D01*
X20118Y-46073D01*
X20137Y-46169D02*
X20099Y-46150D01*
X20061Y-46111D01*
X20042Y-46035D01*
X20042Y-45902D01*
X20061Y-45826D01*
X20099Y-45788D01*
X20137Y-45769D01*
X20213Y-45769D01*
X20251Y-45788D01*
X20289Y-45826D01*
X20308Y-45902D01*
X20308Y-46035D01*
X20289Y-46111D01*
X20251Y-46150D01*
X20213Y-46169D01*
X20137Y-46169D01*
X20442Y-45769D02*
X20689Y-45769D01*
X20556Y-45921D01*
X20613Y-45921D01*
X20651Y-45940D01*
X20670Y-45959D01*
X20689Y-45997D01*
X20689Y-46092D01*
X20670Y-46131D01*
X20651Y-46150D01*
X20613Y-46169D01*
X20499Y-46169D01*
X20461Y-46150D01*
X20442Y-46131D01*
X19623Y-42459D02*
X19680Y-42478D01*
X19699Y-42497D01*
X19718Y-42535D01*
X19718Y-42592D01*
X19699Y-42631D01*
X19680Y-42650D01*
X19642Y-42669D01*
X19489Y-42669D01*
X19489Y-42269D01*
X19623Y-42269D01*
X19661Y-42288D01*
X19680Y-42307D01*
X19699Y-42345D01*
X19699Y-42383D01*
X19680Y-42421D01*
X19661Y-42440D01*
X19623Y-42459D01*
X19489Y-42459D01*
X20118Y-42631D02*
X20099Y-42650D01*
X20042Y-42669D01*
X20004Y-42669D01*
X19947Y-42650D01*
X19908Y-42611D01*
X19889Y-42573D01*
X19870Y-42497D01*
X19870Y-42440D01*
X19889Y-42364D01*
X19908Y-42326D01*
X19947Y-42288D01*
X20004Y-42269D01*
X20042Y-42269D01*
X20099Y-42288D01*
X20118Y-42307D01*
X20480Y-42269D02*
X20289Y-42269D01*
X20270Y-42459D01*
X20289Y-42440D01*
X20328Y-42421D01*
X20423Y-42421D01*
X20461Y-42440D01*
X20480Y-42459D01*
X20499Y-42497D01*
X20499Y-42592D01*
X20480Y-42631D01*
X20461Y-42650D01*
X20423Y-42669D01*
X20328Y-42669D01*
X20289Y-42650D01*
X20270Y-42631D01*
X20842Y-42402D02*
X20842Y-42669D01*
X20747Y-42250D02*
X20651Y-42535D01*
X20899Y-42535D01*
X21108Y-42440D02*
X21070Y-42421D01*
X21051Y-42402D01*
X21032Y-42364D01*
X21032Y-42345D01*
X21051Y-42307D01*
X21070Y-42288D01*
X21108Y-42269D01*
X21185Y-42269D01*
X21223Y-42288D01*
X21242Y-42307D01*
X21261Y-42345D01*
X21261Y-42364D01*
X21242Y-42402D01*
X21223Y-42421D01*
X21185Y-42440D01*
X21108Y-42440D01*
X21070Y-42459D01*
X21051Y-42478D01*
X21032Y-42516D01*
X21032Y-42592D01*
X21051Y-42631D01*
X21070Y-42650D01*
X21108Y-42669D01*
X21185Y-42669D01*
X21223Y-42650D01*
X21242Y-42631D01*
X21261Y-42592D01*
X21261Y-42516D01*
X21242Y-42478D01*
X21223Y-42459D01*
X21185Y-42440D01*
X68008Y-35162D02*
X67770Y-35162D01*
X67747Y-35424D01*
X67770Y-35397D01*
X67818Y-35371D01*
X67937Y-35371D01*
X67985Y-35397D01*
X68008Y-35424D01*
X68032Y-35476D01*
X68032Y-35607D01*
X68008Y-35659D01*
X67985Y-35686D01*
X67937Y-35712D01*
X67818Y-35712D01*
X67770Y-35686D01*
X67747Y-35659D01*
X68461Y-35162D02*
X68366Y-35162D01*
X68318Y-35188D01*
X68294Y-35214D01*
X68247Y-35293D01*
X68223Y-35397D01*
X68223Y-35607D01*
X68247Y-35659D01*
X68270Y-35686D01*
X68318Y-35712D01*
X68413Y-35712D01*
X68461Y-35686D01*
X68485Y-35659D01*
X68508Y-35607D01*
X68508Y-35476D01*
X68485Y-35424D01*
X68461Y-35397D01*
X68413Y-35371D01*
X68318Y-35371D01*
X68270Y-35397D01*
X68247Y-35424D01*
X68223Y-35476D01*
X68818Y-35162D02*
X68866Y-35162D01*
X68913Y-35188D01*
X68937Y-35214D01*
X68961Y-35266D01*
X68985Y-35371D01*
X68985Y-35502D01*
X68961Y-35607D01*
X68937Y-35659D01*
X68913Y-35686D01*
X68866Y-35712D01*
X68818Y-35712D01*
X68770Y-35686D01*
X68747Y-35659D01*
X68723Y-35607D01*
X68699Y-35502D01*
X68699Y-35371D01*
X68723Y-35266D01*
X68747Y-35214D01*
X68770Y-35188D01*
X68818Y-35162D01*
X83166Y-43605D02*
X82881Y-43605D01*
X83024Y-43605D02*
X83024Y-43055D01*
X82976Y-43134D01*
X82928Y-43186D01*
X82881Y-43213D01*
X83476Y-43055D02*
X83524Y-43055D01*
X83571Y-43082D01*
X83595Y-43108D01*
X83619Y-43160D01*
X83643Y-43265D01*
X83643Y-43396D01*
X83619Y-43501D01*
X83595Y-43553D01*
X83571Y-43579D01*
X83524Y-43605D01*
X83476Y-43605D01*
X83428Y-43579D01*
X83405Y-43553D01*
X83381Y-43501D01*
X83357Y-43396D01*
X83357Y-43265D01*
X83381Y-43160D01*
X83405Y-43108D01*
X83428Y-43082D01*
X83476Y-43055D01*
X83857Y-43605D02*
X83857Y-43055D01*
X83905Y-43396D02*
X84047Y-43605D01*
X84047Y-43239D02*
X83857Y-43448D01*
X87103Y-43605D02*
X86818Y-43605D01*
X86961Y-43605D02*
X86961Y-43055D01*
X86913Y-43134D01*
X86865Y-43186D01*
X86818Y-43213D01*
X87413Y-43055D02*
X87461Y-43055D01*
X87508Y-43082D01*
X87532Y-43108D01*
X87556Y-43160D01*
X87580Y-43265D01*
X87580Y-43396D01*
X87556Y-43501D01*
X87532Y-43553D01*
X87508Y-43579D01*
X87461Y-43605D01*
X87413Y-43605D01*
X87365Y-43579D01*
X87342Y-43553D01*
X87318Y-43501D01*
X87294Y-43396D01*
X87294Y-43265D01*
X87318Y-43160D01*
X87342Y-43108D01*
X87365Y-43082D01*
X87413Y-43055D01*
X87794Y-43605D02*
X87794Y-43055D01*
X87842Y-43396D02*
X87984Y-43605D01*
X87984Y-43239D02*
X87794Y-43448D01*
X91196Y-43605D02*
X90910Y-43605D01*
X91053Y-43605D02*
X91053Y-43055D01*
X91006Y-43134D01*
X90958Y-43186D01*
X90910Y-43213D01*
X91506Y-43055D02*
X91553Y-43055D01*
X91601Y-43082D01*
X91625Y-43108D01*
X91648Y-43160D01*
X91672Y-43265D01*
X91672Y-43396D01*
X91648Y-43501D01*
X91625Y-43553D01*
X91601Y-43579D01*
X91553Y-43605D01*
X91506Y-43605D01*
X91458Y-43579D01*
X91434Y-43553D01*
X91410Y-43501D01*
X91387Y-43396D01*
X91387Y-43265D01*
X91410Y-43160D01*
X91434Y-43108D01*
X91458Y-43082D01*
X91506Y-43055D01*
X91982Y-43055D02*
X92029Y-43055D01*
X92077Y-43082D01*
X92101Y-43108D01*
X92125Y-43160D01*
X92148Y-43265D01*
X92148Y-43396D01*
X92125Y-43501D01*
X92101Y-43553D01*
X92077Y-43579D01*
X92029Y-43605D01*
X91982Y-43605D01*
X91934Y-43579D01*
X91910Y-43553D01*
X91887Y-43501D01*
X91863Y-43396D01*
X91863Y-43265D01*
X91887Y-43160D01*
X91910Y-43108D01*
X91934Y-43082D01*
X91982Y-43055D01*
X92363Y-43605D02*
X92363Y-43055D01*
X92410Y-43396D02*
X92553Y-43605D01*
X92553Y-43239D02*
X92363Y-43448D01*
X95527Y-43605D02*
X95241Y-43605D01*
X95384Y-43605D02*
X95384Y-43055D01*
X95336Y-43134D01*
X95289Y-43186D01*
X95241Y-43213D01*
X95836Y-43055D02*
X95884Y-43055D01*
X95932Y-43082D01*
X95955Y-43108D01*
X95979Y-43160D01*
X96003Y-43265D01*
X96003Y-43396D01*
X95979Y-43501D01*
X95955Y-43553D01*
X95932Y-43579D01*
X95884Y-43605D01*
X95836Y-43605D01*
X95789Y-43579D01*
X95765Y-43553D01*
X95741Y-43501D01*
X95717Y-43396D01*
X95717Y-43265D01*
X95741Y-43160D01*
X95765Y-43108D01*
X95789Y-43082D01*
X95836Y-43055D01*
X96312Y-43055D02*
X96360Y-43055D01*
X96408Y-43082D01*
X96432Y-43108D01*
X96455Y-43160D01*
X96479Y-43265D01*
X96479Y-43396D01*
X96455Y-43501D01*
X96432Y-43553D01*
X96408Y-43579D01*
X96360Y-43605D01*
X96312Y-43605D01*
X96265Y-43579D01*
X96241Y-43553D01*
X96217Y-43501D01*
X96193Y-43396D01*
X96193Y-43265D01*
X96217Y-43160D01*
X96241Y-43108D01*
X96265Y-43082D01*
X96312Y-43055D01*
X96693Y-43605D02*
X96693Y-43055D01*
X96741Y-43396D02*
X96884Y-43605D01*
X96884Y-43239D02*
X96693Y-43448D01*
X100036Y-43055D02*
X99798Y-43055D01*
X99774Y-43317D01*
X99798Y-43291D01*
X99846Y-43265D01*
X99965Y-43265D01*
X100012Y-43291D01*
X100036Y-43317D01*
X100060Y-43370D01*
X100060Y-43501D01*
X100036Y-43553D01*
X100012Y-43579D01*
X99965Y-43605D01*
X99846Y-43605D01*
X99798Y-43579D01*
X99774Y-43553D01*
X100488Y-43055D02*
X100393Y-43055D01*
X100346Y-43082D01*
X100322Y-43108D01*
X100274Y-43186D01*
X100250Y-43291D01*
X100250Y-43501D01*
X100274Y-43553D01*
X100298Y-43579D01*
X100346Y-43605D01*
X100441Y-43605D01*
X100488Y-43579D01*
X100512Y-43553D01*
X100536Y-43501D01*
X100536Y-43370D01*
X100512Y-43317D01*
X100488Y-43291D01*
X100441Y-43265D01*
X100346Y-43265D01*
X100298Y-43291D01*
X100274Y-43317D01*
X100250Y-43370D01*
X100846Y-43055D02*
X100893Y-43055D01*
X100941Y-43082D01*
X100965Y-43108D01*
X100988Y-43160D01*
X101012Y-43265D01*
X101012Y-43396D01*
X100988Y-43501D01*
X100965Y-43553D01*
X100941Y-43579D01*
X100893Y-43605D01*
X100846Y-43605D01*
X100798Y-43579D01*
X100774Y-43553D01*
X100750Y-43501D01*
X100727Y-43396D01*
X100727Y-43265D01*
X100750Y-43160D01*
X100774Y-43108D01*
X100798Y-43082D01*
X100846Y-43055D01*
X104426Y-43605D02*
X104141Y-43605D01*
X104283Y-43605D02*
X104283Y-43055D01*
X104236Y-43134D01*
X104188Y-43186D01*
X104141Y-43213D01*
X104736Y-43055D02*
X104783Y-43055D01*
X104831Y-43082D01*
X104855Y-43108D01*
X104879Y-43160D01*
X104902Y-43265D01*
X104902Y-43396D01*
X104879Y-43501D01*
X104855Y-43553D01*
X104831Y-43579D01*
X104783Y-43605D01*
X104736Y-43605D01*
X104688Y-43579D01*
X104664Y-43553D01*
X104641Y-43501D01*
X104617Y-43396D01*
X104617Y-43265D01*
X104641Y-43160D01*
X104664Y-43108D01*
X104688Y-43082D01*
X104736Y-43055D01*
X105117Y-43605D02*
X105117Y-43055D01*
X105164Y-43396D02*
X105307Y-43605D01*
X105307Y-43239D02*
X105117Y-43448D01*
X70174Y-45180D02*
X69889Y-45180D01*
X70031Y-45180D02*
X70031Y-44630D01*
X69984Y-44709D01*
X69936Y-44761D01*
X69889Y-44787D01*
X70484Y-44630D02*
X70531Y-44630D01*
X70579Y-44656D01*
X70603Y-44683D01*
X70627Y-44735D01*
X70651Y-44840D01*
X70651Y-44971D01*
X70627Y-45075D01*
X70603Y-45128D01*
X70579Y-45154D01*
X70531Y-45180D01*
X70484Y-45180D01*
X70436Y-45154D01*
X70412Y-45128D01*
X70389Y-45075D01*
X70365Y-44971D01*
X70365Y-44840D01*
X70389Y-44735D01*
X70412Y-44683D01*
X70436Y-44656D01*
X70484Y-44630D01*
X70865Y-45180D02*
X70865Y-44630D01*
X70912Y-44971D02*
X71055Y-45180D01*
X71055Y-44814D02*
X70865Y-45023D01*
X74267Y-45180D02*
X73981Y-45180D01*
X74124Y-45180D02*
X74124Y-44630D01*
X74076Y-44709D01*
X74029Y-44761D01*
X73981Y-44787D01*
X74576Y-44630D02*
X74624Y-44630D01*
X74672Y-44656D01*
X74696Y-44683D01*
X74719Y-44735D01*
X74743Y-44840D01*
X74743Y-44971D01*
X74719Y-45075D01*
X74696Y-45128D01*
X74672Y-45154D01*
X74624Y-45180D01*
X74576Y-45180D01*
X74529Y-45154D01*
X74505Y-45128D01*
X74481Y-45075D01*
X74457Y-44971D01*
X74457Y-44840D01*
X74481Y-44735D01*
X74505Y-44683D01*
X74529Y-44656D01*
X74576Y-44630D01*
X75053Y-44630D02*
X75100Y-44630D01*
X75148Y-44656D01*
X75172Y-44683D01*
X75196Y-44735D01*
X75219Y-44840D01*
X75219Y-44971D01*
X75196Y-45075D01*
X75172Y-45128D01*
X75148Y-45154D01*
X75100Y-45180D01*
X75053Y-45180D01*
X75005Y-45154D01*
X74981Y-45128D01*
X74957Y-45075D01*
X74934Y-44971D01*
X74934Y-44840D01*
X74957Y-44735D01*
X74981Y-44683D01*
X75005Y-44656D01*
X75053Y-44630D01*
X75434Y-45180D02*
X75434Y-44630D01*
X75481Y-44971D02*
X75624Y-45180D01*
X75624Y-44814D02*
X75434Y-45023D01*
X78598Y-45180D02*
X78312Y-45180D01*
X78455Y-45180D02*
X78455Y-44630D01*
X78407Y-44709D01*
X78360Y-44761D01*
X78312Y-44787D01*
X78907Y-44630D02*
X78955Y-44630D01*
X79002Y-44656D01*
X79026Y-44683D01*
X79050Y-44735D01*
X79074Y-44840D01*
X79074Y-44971D01*
X79050Y-45075D01*
X79026Y-45128D01*
X79002Y-45154D01*
X78955Y-45180D01*
X78907Y-45180D01*
X78860Y-45154D01*
X78836Y-45128D01*
X78812Y-45075D01*
X78788Y-44971D01*
X78788Y-44840D01*
X78812Y-44735D01*
X78836Y-44683D01*
X78860Y-44656D01*
X78907Y-44630D01*
X79383Y-44630D02*
X79431Y-44630D01*
X79479Y-44656D01*
X79502Y-44683D01*
X79526Y-44735D01*
X79550Y-44840D01*
X79550Y-44971D01*
X79526Y-45075D01*
X79502Y-45128D01*
X79479Y-45154D01*
X79431Y-45180D01*
X79383Y-45180D01*
X79336Y-45154D01*
X79312Y-45128D01*
X79288Y-45075D01*
X79264Y-44971D01*
X79264Y-44840D01*
X79288Y-44735D01*
X79312Y-44683D01*
X79336Y-44656D01*
X79383Y-44630D01*
X79764Y-45180D02*
X79764Y-44630D01*
X79812Y-44971D02*
X79955Y-45180D01*
X79955Y-44814D02*
X79764Y-45023D01*
X82713Y-44630D02*
X82475Y-44630D01*
X82451Y-44892D01*
X82475Y-44866D01*
X82523Y-44840D01*
X82642Y-44840D01*
X82689Y-44866D01*
X82713Y-44892D01*
X82737Y-44944D01*
X82737Y-45075D01*
X82713Y-45128D01*
X82689Y-45154D01*
X82642Y-45180D01*
X82523Y-45180D01*
X82475Y-45154D01*
X82451Y-45128D01*
X83166Y-44630D02*
X83070Y-44630D01*
X83023Y-44656D01*
X82999Y-44683D01*
X82951Y-44761D01*
X82928Y-44866D01*
X82928Y-45075D01*
X82951Y-45128D01*
X82975Y-45154D01*
X83023Y-45180D01*
X83118Y-45180D01*
X83166Y-45154D01*
X83189Y-45128D01*
X83213Y-45075D01*
X83213Y-44944D01*
X83189Y-44892D01*
X83166Y-44866D01*
X83118Y-44840D01*
X83023Y-44840D01*
X82975Y-44866D01*
X82951Y-44892D01*
X82928Y-44944D01*
X83523Y-44630D02*
X83570Y-44630D01*
X83618Y-44656D01*
X83642Y-44683D01*
X83666Y-44735D01*
X83689Y-44840D01*
X83689Y-44971D01*
X83666Y-45075D01*
X83642Y-45128D01*
X83618Y-45154D01*
X83570Y-45180D01*
X83523Y-45180D01*
X83475Y-45154D01*
X83451Y-45128D01*
X83428Y-45075D01*
X83404Y-44971D01*
X83404Y-44840D01*
X83428Y-44735D01*
X83451Y-44683D01*
X83475Y-44656D01*
X83523Y-44630D01*
X87103Y-45180D02*
X86818Y-45180D01*
X86961Y-45180D02*
X86961Y-44630D01*
X86913Y-44709D01*
X86865Y-44761D01*
X86818Y-44787D01*
X87413Y-44630D02*
X87461Y-44630D01*
X87508Y-44656D01*
X87532Y-44683D01*
X87556Y-44735D01*
X87580Y-44840D01*
X87580Y-44971D01*
X87556Y-45075D01*
X87532Y-45128D01*
X87508Y-45154D01*
X87461Y-45180D01*
X87413Y-45180D01*
X87365Y-45154D01*
X87342Y-45128D01*
X87318Y-45075D01*
X87294Y-44971D01*
X87294Y-44840D01*
X87318Y-44735D01*
X87342Y-44683D01*
X87365Y-44656D01*
X87413Y-44630D01*
X87794Y-45180D02*
X87794Y-44630D01*
X87842Y-44971D02*
X87984Y-45180D01*
X87984Y-44814D02*
X87794Y-45023D01*
X91196Y-45180D02*
X90910Y-45180D01*
X91053Y-45180D02*
X91053Y-44630D01*
X91006Y-44709D01*
X90958Y-44761D01*
X90910Y-44787D01*
X91506Y-44630D02*
X91553Y-44630D01*
X91601Y-44656D01*
X91625Y-44683D01*
X91648Y-44735D01*
X91672Y-44840D01*
X91672Y-44971D01*
X91648Y-45075D01*
X91625Y-45128D01*
X91601Y-45154D01*
X91553Y-45180D01*
X91506Y-45180D01*
X91458Y-45154D01*
X91434Y-45128D01*
X91410Y-45075D01*
X91387Y-44971D01*
X91387Y-44840D01*
X91410Y-44735D01*
X91434Y-44683D01*
X91458Y-44656D01*
X91506Y-44630D01*
X91982Y-44630D02*
X92029Y-44630D01*
X92077Y-44656D01*
X92101Y-44683D01*
X92125Y-44735D01*
X92148Y-44840D01*
X92148Y-44971D01*
X92125Y-45075D01*
X92101Y-45128D01*
X92077Y-45154D01*
X92029Y-45180D01*
X91982Y-45180D01*
X91934Y-45154D01*
X91910Y-45128D01*
X91887Y-45075D01*
X91863Y-44971D01*
X91863Y-44840D01*
X91887Y-44735D01*
X91910Y-44683D01*
X91934Y-44656D01*
X91982Y-44630D01*
X92363Y-45180D02*
X92363Y-44630D01*
X92410Y-44971D02*
X92553Y-45180D01*
X92553Y-44814D02*
X92363Y-45023D01*
X74111Y-35554D02*
X73826Y-35554D01*
X73968Y-35554D02*
X73968Y-35004D01*
X73921Y-35083D01*
X73873Y-35135D01*
X73826Y-35161D01*
X74421Y-35004D02*
X74468Y-35004D01*
X74516Y-35030D01*
X74540Y-35057D01*
X74564Y-35109D01*
X74588Y-35214D01*
X74588Y-35345D01*
X74564Y-35449D01*
X74540Y-35502D01*
X74516Y-35528D01*
X74468Y-35554D01*
X74421Y-35554D01*
X74373Y-35528D01*
X74349Y-35502D01*
X74326Y-35449D01*
X74302Y-35345D01*
X74302Y-35214D01*
X74326Y-35109D01*
X74349Y-35057D01*
X74373Y-35030D01*
X74421Y-35004D01*
X74802Y-35554D02*
X74802Y-35004D01*
X74849Y-35345D02*
X74992Y-35554D01*
X74992Y-35188D02*
X74802Y-35397D01*
X95527Y-45180D02*
X95241Y-45180D01*
X95384Y-45180D02*
X95384Y-44630D01*
X95336Y-44709D01*
X95289Y-44761D01*
X95241Y-44787D01*
X95836Y-44630D02*
X95884Y-44630D01*
X95932Y-44656D01*
X95955Y-44683D01*
X95979Y-44735D01*
X96003Y-44840D01*
X96003Y-44971D01*
X95979Y-45075D01*
X95955Y-45128D01*
X95932Y-45154D01*
X95884Y-45180D01*
X95836Y-45180D01*
X95789Y-45154D01*
X95765Y-45128D01*
X95741Y-45075D01*
X95717Y-44971D01*
X95717Y-44840D01*
X95741Y-44735D01*
X95765Y-44683D01*
X95789Y-44656D01*
X95836Y-44630D01*
X96312Y-44630D02*
X96360Y-44630D01*
X96408Y-44656D01*
X96432Y-44683D01*
X96455Y-44735D01*
X96479Y-44840D01*
X96479Y-44971D01*
X96455Y-45075D01*
X96432Y-45128D01*
X96408Y-45154D01*
X96360Y-45180D01*
X96312Y-45180D01*
X96265Y-45154D01*
X96241Y-45128D01*
X96217Y-45075D01*
X96193Y-44971D01*
X96193Y-44840D01*
X96217Y-44735D01*
X96241Y-44683D01*
X96265Y-44656D01*
X96312Y-44630D01*
X96693Y-45180D02*
X96693Y-44630D01*
X96741Y-44971D02*
X96884Y-45180D01*
X96884Y-44814D02*
X96693Y-45023D01*
G54D10*
X52849Y-19863D02*
X52849Y-20181D01*
X52868Y-20219D01*
X52887Y-20238D01*
X52924Y-20256D01*
X52999Y-20256D01*
X53037Y-20238D01*
X53055Y-20219D01*
X53074Y-20181D01*
X53074Y-19863D01*
X53243Y-19900D02*
X53262Y-19881D01*
X53299Y-19863D01*
X53393Y-19863D01*
X53430Y-19881D01*
X53449Y-19900D01*
X53468Y-19938D01*
X53468Y-19975D01*
X53449Y-20031D01*
X53224Y-20256D01*
X53468Y-20256D01*
X51912Y-20965D02*
X51912Y-20571D01*
X52043Y-20853D01*
X52174Y-20571D01*
X52174Y-20965D01*
X52343Y-20853D02*
X52530Y-20853D01*
X52305Y-20965D02*
X52437Y-20571D01*
X52568Y-20965D01*
X52662Y-20571D02*
X52924Y-20965D01*
X52924Y-20571D02*
X52662Y-20965D01*
X53037Y-20571D02*
X53280Y-20571D01*
X53149Y-20721D01*
X53205Y-20721D01*
X53243Y-20740D01*
X53262Y-20759D01*
X53280Y-20796D01*
X53280Y-20890D01*
X53262Y-20928D01*
X53243Y-20946D01*
X53205Y-20965D01*
X53093Y-20965D01*
X53055Y-20946D01*
X53037Y-20928D01*
X53430Y-20609D02*
X53449Y-20590D01*
X53487Y-20571D01*
X53580Y-20571D01*
X53618Y-20590D01*
X53637Y-20609D01*
X53655Y-20646D01*
X53655Y-20684D01*
X53637Y-20740D01*
X53412Y-20965D01*
X53655Y-20965D01*
X53787Y-20571D02*
X54030Y-20571D01*
X53899Y-20721D01*
X53955Y-20721D01*
X53993Y-20740D01*
X54011Y-20759D01*
X54030Y-20796D01*
X54030Y-20890D01*
X54011Y-20928D01*
X53993Y-20946D01*
X53955Y-20965D01*
X53843Y-20965D01*
X53805Y-20946D01*
X53787Y-20928D01*
X54180Y-20609D02*
X54199Y-20590D01*
X54236Y-20571D01*
X54330Y-20571D01*
X54368Y-20590D01*
X54386Y-20609D01*
X54405Y-20646D01*
X54405Y-20684D01*
X54386Y-20740D01*
X54161Y-20965D01*
X54405Y-20965D01*
M02*
