G04 (created by PCBNEW (2013-mar-13)-testing) date vie 30 may 2014 10:06:53 ART*
%MOIN*%
G04 Gerber Fmt 3.4, Leading zero omitted, Abs format*
%FSLAX34Y34*%
G01*
G70*
G90*
G04 APERTURE LIST*
%ADD10C,0.005906*%
%ADD11C,0.003500*%
G04 APERTURE END LIST*
G54D10*
G54D11*
X52188Y-25854D02*
X52022Y-25616D01*
X51902Y-25854D02*
X51902Y-25354D01*
X52093Y-25354D01*
X52141Y-25377D01*
X52164Y-25401D01*
X52188Y-25449D01*
X52188Y-25520D01*
X52164Y-25568D01*
X52141Y-25592D01*
X52093Y-25616D01*
X51902Y-25616D01*
X52641Y-25854D02*
X52402Y-25854D01*
X52402Y-25354D01*
X53069Y-25854D02*
X52783Y-25854D01*
X52926Y-25854D02*
X52926Y-25354D01*
X52879Y-25425D01*
X52831Y-25473D01*
X52783Y-25497D01*
X50855Y-26854D02*
X50688Y-26616D01*
X50569Y-26854D02*
X50569Y-26354D01*
X50760Y-26354D01*
X50807Y-26377D01*
X50831Y-26401D01*
X50855Y-26449D01*
X50855Y-26520D01*
X50831Y-26568D01*
X50807Y-26592D01*
X50760Y-26616D01*
X50569Y-26616D01*
X51069Y-26854D02*
X51069Y-26354D01*
X51236Y-26711D01*
X51402Y-26354D01*
X51402Y-26854D01*
X51879Y-26354D02*
X51641Y-26354D01*
X51617Y-26592D01*
X51641Y-26568D01*
X51688Y-26544D01*
X51807Y-26544D01*
X51855Y-26568D01*
X51879Y-26592D01*
X51902Y-26639D01*
X51902Y-26758D01*
X51879Y-26806D01*
X51855Y-26830D01*
X51807Y-26854D01*
X51688Y-26854D01*
X51641Y-26830D01*
X51617Y-26806D01*
X52212Y-26354D02*
X52260Y-26354D01*
X52307Y-26377D01*
X52331Y-26401D01*
X52355Y-26449D01*
X52379Y-26544D01*
X52379Y-26663D01*
X52355Y-26758D01*
X52331Y-26806D01*
X52307Y-26830D01*
X52260Y-26854D01*
X52212Y-26854D01*
X52164Y-26830D01*
X52141Y-26806D01*
X52117Y-26758D01*
X52093Y-26663D01*
X52093Y-26544D01*
X52117Y-26449D01*
X52141Y-26401D01*
X52164Y-26377D01*
X52212Y-26354D01*
X52593Y-26663D02*
X52974Y-26663D01*
X53164Y-26354D02*
X53498Y-26854D01*
X53498Y-26354D02*
X53164Y-26854D01*
X53641Y-26354D02*
X53974Y-26854D01*
X53974Y-26354D02*
X53641Y-26854D01*
X54141Y-26401D02*
X54164Y-26377D01*
X54212Y-26354D01*
X54331Y-26354D01*
X54379Y-26377D01*
X54402Y-26401D01*
X54426Y-26449D01*
X54426Y-26497D01*
X54402Y-26568D01*
X54117Y-26854D01*
X54426Y-26854D01*
X54902Y-26854D02*
X54617Y-26854D01*
X54760Y-26854D02*
X54760Y-26354D01*
X54712Y-26425D01*
X54664Y-26473D01*
X54617Y-26497D01*
M02*
